%TF.GenerationSoftware,KiCad,Pcbnew,8.0.3*%
%TF.CreationDate,2024-10-04T20:59:13+05:30*%
%TF.ProjectId,TP4056,54503430-3536-42e6-9b69-6361645f7063,rev?*%
%TF.SameCoordinates,Original*%
%TF.FileFunction,Copper,L1,Top*%
%TF.FilePolarity,Positive*%
%FSLAX46Y46*%
G04 Gerber Fmt 4.6, Leading zero omitted, Abs format (unit mm)*
G04 Created by KiCad (PCBNEW 8.0.3) date 2024-10-04 20:59:13*
%MOMM*%
%LPD*%
G01*
G04 APERTURE LIST*
G04 Aperture macros list*
%AMRoundRect*
0 Rectangle with rounded corners*
0 $1 Rounding radius*
0 $2 $3 $4 $5 $6 $7 $8 $9 X,Y pos of 4 corners*
0 Add a 4 corners polygon primitive as box body*
4,1,4,$2,$3,$4,$5,$6,$7,$8,$9,$2,$3,0*
0 Add four circle primitives for the rounded corners*
1,1,$1+$1,$2,$3*
1,1,$1+$1,$4,$5*
1,1,$1+$1,$6,$7*
1,1,$1+$1,$8,$9*
0 Add four rect primitives between the rounded corners*
20,1,$1+$1,$2,$3,$4,$5,0*
20,1,$1+$1,$4,$5,$6,$7,0*
20,1,$1+$1,$6,$7,$8,$9,0*
20,1,$1+$1,$8,$9,$2,$3,0*%
%AMOutline5P*
0 Free polygon, 5 corners , with rotation*
0 The origin of the aperture is its center*
0 number of corners: always 5*
0 $1 to $10 corner X, Y*
0 $11 Rotation angle, in degrees counterclockwise*
0 create outline with 5 corners*
4,1,5,$1,$2,$3,$4,$5,$6,$7,$8,$9,$10,$1,$2,$11*%
%AMOutline6P*
0 Free polygon, 6 corners , with rotation*
0 The origin of the aperture is its center*
0 number of corners: always 6*
0 $1 to $12 corner X, Y*
0 $13 Rotation angle, in degrees counterclockwise*
0 create outline with 6 corners*
4,1,6,$1,$2,$3,$4,$5,$6,$7,$8,$9,$10,$11,$12,$1,$2,$13*%
%AMOutline7P*
0 Free polygon, 7 corners , with rotation*
0 The origin of the aperture is its center*
0 number of corners: always 7*
0 $1 to $14 corner X, Y*
0 $15 Rotation angle, in degrees counterclockwise*
0 create outline with 7 corners*
4,1,7,$1,$2,$3,$4,$5,$6,$7,$8,$9,$10,$11,$12,$13,$14,$1,$2,$15*%
%AMOutline8P*
0 Free polygon, 8 corners , with rotation*
0 The origin of the aperture is its center*
0 number of corners: always 8*
0 $1 to $16 corner X, Y*
0 $17 Rotation angle, in degrees counterclockwise*
0 create outline with 8 corners*
4,1,8,$1,$2,$3,$4,$5,$6,$7,$8,$9,$10,$11,$12,$13,$14,$15,$16,$1,$2,$17*%
G04 Aperture macros list end*
%TA.AperFunction,SMDPad,CuDef*%
%ADD10RoundRect,0.225000X-0.250000X0.225000X-0.250000X-0.225000X0.250000X-0.225000X0.250000X0.225000X0*%
%TD*%
%TA.AperFunction,SMDPad,CuDef*%
%ADD11RoundRect,0.200000X-0.200000X-0.275000X0.200000X-0.275000X0.200000X0.275000X-0.200000X0.275000X0*%
%TD*%
%TA.AperFunction,SMDPad,CuDef*%
%ADD12RoundRect,0.200000X0.275000X-0.200000X0.275000X0.200000X-0.275000X0.200000X-0.275000X-0.200000X0*%
%TD*%
%TA.AperFunction,SMDPad,CuDef*%
%ADD13R,0.600000X0.400000*%
%TD*%
%TA.AperFunction,SMDPad,CuDef*%
%ADD14R,0.700000X1.600000*%
%TD*%
%TA.AperFunction,SMDPad,CuDef*%
%ADD15RoundRect,0.200000X0.200000X0.275000X-0.200000X0.275000X-0.200000X-0.275000X0.200000X-0.275000X0*%
%TD*%
%TA.AperFunction,SMDPad,CuDef*%
%ADD16R,1.050000X0.650000*%
%TD*%
%TA.AperFunction,SMDPad,CuDef*%
%ADD17R,1.500000X0.900000*%
%TD*%
%TA.AperFunction,SMDPad,CuDef*%
%ADD18RoundRect,0.218750X-0.218750X-0.256250X0.218750X-0.256250X0.218750X0.256250X-0.218750X0.256250X0*%
%TD*%
%TA.AperFunction,SMDPad,CuDef*%
%ADD19RoundRect,0.225000X-0.225000X-0.250000X0.225000X-0.250000X0.225000X0.250000X-0.225000X0.250000X0*%
%TD*%
%TA.AperFunction,ComponentPad*%
%ADD20R,1.700000X1.700000*%
%TD*%
%TA.AperFunction,ComponentPad*%
%ADD21O,1.700000X1.700000*%
%TD*%
%TA.AperFunction,SMDPad,CuDef*%
%ADD22RoundRect,0.225000X0.225000X0.250000X-0.225000X0.250000X-0.225000X-0.250000X0.225000X-0.250000X0*%
%TD*%
%TA.AperFunction,SMDPad,CuDef*%
%ADD23R,0.800000X0.400000*%
%TD*%
%TA.AperFunction,SMDPad,CuDef*%
%ADD24R,0.400000X0.800000*%
%TD*%
%TA.AperFunction,SMDPad,CuDef*%
%ADD25Outline5P,-0.600000X0.204000X-0.204000X0.600000X0.600000X0.600000X0.600000X-0.600000X-0.600000X-0.600000X0.000000*%
%TD*%
%TA.AperFunction,SMDPad,CuDef*%
%ADD26R,1.200000X1.200000*%
%TD*%
%TA.AperFunction,SMDPad,CuDef*%
%ADD27R,0.800000X0.800000*%
%TD*%
%TA.AperFunction,SMDPad,CuDef*%
%ADD28RoundRect,0.150000X-0.150000X-0.425000X0.150000X-0.425000X0.150000X0.425000X-0.150000X0.425000X0*%
%TD*%
%TA.AperFunction,SMDPad,CuDef*%
%ADD29RoundRect,0.075000X-0.075000X-0.500000X0.075000X-0.500000X0.075000X0.500000X-0.075000X0.500000X0*%
%TD*%
%TA.AperFunction,ComponentPad*%
%ADD30O,1.000000X2.100000*%
%TD*%
%TA.AperFunction,ComponentPad*%
%ADD31O,1.000000X1.800000*%
%TD*%
%TA.AperFunction,SMDPad,CuDef*%
%ADD32RoundRect,0.093750X-0.093750X-0.106250X0.093750X-0.106250X0.093750X0.106250X-0.093750X0.106250X0*%
%TD*%
%TA.AperFunction,HeatsinkPad*%
%ADD33R,1.000000X1.600000*%
%TD*%
%TA.AperFunction,SMDPad,CuDef*%
%ADD34R,0.625000X0.250000*%
%TD*%
%TA.AperFunction,SMDPad,CuDef*%
%ADD35R,0.700000X0.450000*%
%TD*%
%TA.AperFunction,SMDPad,CuDef*%
%ADD36R,0.575000X0.450000*%
%TD*%
%TA.AperFunction,ViaPad*%
%ADD37C,0.600000*%
%TD*%
%TA.AperFunction,Conductor*%
%ADD38C,0.200000*%
%TD*%
G04 APERTURE END LIST*
D10*
%TO.P,C1,1*%
%TO.N,/3V3*%
X78835000Y-86200000D03*
%TO.P,C1,2*%
%TO.N,GND*%
X78835000Y-87750000D03*
%TD*%
D11*
%TO.P,R3,1*%
%TO.N,/3V3*%
X76875000Y-84350000D03*
%TO.P,R3,2*%
%TO.N,/ESP32_EN*%
X78525000Y-84350000D03*
%TD*%
D12*
%TO.P,R5,1*%
%TO.N,/3V3*%
X72325000Y-92700000D03*
%TO.P,R5,2*%
%TO.N,/I2C_SDA*%
X72325000Y-91050000D03*
%TD*%
D13*
%TO.P,U4,1,VDD*%
%TO.N,/3V3*%
X70302500Y-111350000D03*
%TO.P,U4,2,SCL*%
%TO.N,/I2C_SCL*%
X70302500Y-112300000D03*
%TO.P,U4,3,SDA*%
%TO.N,/I2C_SDA*%
X72202500Y-112300000D03*
%TO.P,U4,4,GND*%
%TO.N,GND*%
X72202500Y-111350000D03*
D14*
%TO.P,U4,5,GND*%
X71252500Y-111825000D03*
%TD*%
D11*
%TO.P,R4,1*%
%TO.N,/3V3*%
X78150000Y-91275000D03*
%TO.P,R4,2*%
%TO.N,/I2C_SCL*%
X79800000Y-91275000D03*
%TD*%
D15*
%TO.P,R2,1*%
%TO.N,Net-(J1-CC1)*%
X70550000Y-92925000D03*
%TO.P,R2,2*%
%TO.N,GND*%
X68900000Y-92925000D03*
%TD*%
D16*
%TO.P,SW1,1,1*%
%TO.N,GND*%
X68775000Y-105625000D03*
X72925000Y-105625000D03*
%TO.P,SW1,2,2*%
X68775000Y-107775000D03*
X72925000Y-107775000D03*
%TD*%
D17*
%TO.P,D1,1,VDD*%
%TO.N,/3V3*%
X72050000Y-96150000D03*
%TO.P,D1,2,DOUT*%
%TO.N,unconnected-(D1-DOUT-Pad2)*%
X72050000Y-99450000D03*
%TO.P,D1,3,VSS*%
%TO.N,GND*%
X76950000Y-99450000D03*
%TO.P,D1,4,DIN*%
%TO.N,/GPIO48*%
X76950000Y-96150000D03*
%TD*%
D11*
%TO.P,R7,1*%
%TO.N,Net-(U2-FB)*%
X74310000Y-93265000D03*
%TO.P,R7,2*%
%TO.N,GND*%
X75960000Y-93265000D03*
%TD*%
D18*
%TO.P,D2,1,K*%
%TO.N,GND*%
X69975000Y-102775000D03*
%TO.P,D2,2,A*%
%TO.N,Net-(D2-A)*%
X71550000Y-102775000D03*
%TD*%
D19*
%TO.P,C5,1*%
%TO.N,/3V3*%
X74190000Y-91275000D03*
%TO.P,C5,2*%
%TO.N,GND*%
X75740000Y-91275000D03*
%TD*%
D15*
%TO.P,R1,1*%
%TO.N,Net-(J1-CC2)*%
X70500000Y-91300000D03*
%TO.P,R1,2*%
%TO.N,GND*%
X68850000Y-91300000D03*
%TD*%
D20*
%TO.P,J3,1,Pin_1*%
%TO.N,GND*%
X85375000Y-64825000D03*
D21*
%TO.P,J3,2,Pin_2*%
%TO.N,/ESP32_EN*%
X85375000Y-67365000D03*
%TO.P,J3,3,Pin_3*%
%TO.N,/GPIO46*%
X85375000Y-69905000D03*
%TO.P,J3,4,Pin_4*%
%TO.N,/GPIO45*%
X85375000Y-72445000D03*
%TO.P,J3,5,Pin_5*%
%TO.N,/RXD*%
X85375000Y-74985000D03*
%TO.P,J3,6,Pin_6*%
%TO.N,/TXD*%
X85375000Y-77525000D03*
%TO.P,J3,7,Pin_7*%
%TO.N,/GPIO42*%
X85375000Y-80065000D03*
%TO.P,J3,8,Pin_8*%
%TO.N,/GPIO41*%
X85375000Y-82605000D03*
%TO.P,J3,9,Pin_9*%
%TO.N,/GPIO40*%
X85375000Y-85145000D03*
%TO.P,J3,10,Pin_10*%
%TO.N,/GPIO39*%
X85375000Y-87685000D03*
%TO.P,J3,11,Pin_11*%
%TO.N,/GPIO38*%
X85375000Y-90225000D03*
%TO.P,J3,12,Pin_12*%
%TO.N,/GPIO37*%
X85375000Y-92765000D03*
%TO.P,J3,13,Pin_13*%
%TO.N,/GPIO36*%
X85375000Y-95305000D03*
%TO.P,J3,14,Pin_14*%
%TO.N,/GPIO35*%
X85375000Y-97845000D03*
%TO.P,J3,15,Pin_15*%
%TO.N,/GPIO34*%
X85375000Y-100385000D03*
%TO.P,J3,16,Pin_16*%
%TO.N,/GPIO33*%
X85375000Y-102925000D03*
%TO.P,J3,17,Pin_17*%
%TO.N,/GPIO26*%
X85375000Y-105465000D03*
%TO.P,J3,18,Pin_18*%
%TO.N,/GPIO21*%
X85375000Y-108005000D03*
%TO.P,J3,19,Pin_19*%
%TO.N,/USB_N*%
X85375000Y-110545000D03*
%TO.P,J3,20,Pin_20*%
%TO.N,/USB_P*%
X85375000Y-113085000D03*
%TO.P,J3,21,Pin_21*%
%TO.N,/GPIO48*%
X85375000Y-115625000D03*
%TO.P,J3,22,Pin_22*%
%TO.N,/GPIO47*%
X85375000Y-118165000D03*
%TD*%
D22*
%TO.P,C3,1*%
%TO.N,/ESP32_EN*%
X78700000Y-82050000D03*
%TO.P,C3,2*%
%TO.N,GND*%
X77150000Y-82050000D03*
%TD*%
D19*
%TO.P,C6,1*%
%TO.N,/5VUSB*%
X78550000Y-115125000D03*
%TO.P,C6,2*%
%TO.N,GND*%
X80100000Y-115125000D03*
%TD*%
D23*
%TO.P,U3,1,GND*%
%TO.N,GND*%
X67775000Y-64750000D03*
%TO.P,U3,2,GND*%
X67775000Y-65600000D03*
%TO.P,U3,3,3V3*%
%TO.N,/3V3*%
X67775000Y-66450000D03*
%TO.P,U3,4,IO0*%
%TO.N,/GPIO0*%
X67775000Y-67300000D03*
%TO.P,U3,5,IO1*%
%TO.N,/GPIO1*%
X67775000Y-68150000D03*
%TO.P,U3,6,IO2*%
%TO.N,/GPIO2*%
X67775000Y-69000000D03*
%TO.P,U3,7,IO3*%
%TO.N,/GPIO3*%
X67775000Y-69850000D03*
%TO.P,U3,8,IO4*%
%TO.N,/GPIO4*%
X67775000Y-70700000D03*
%TO.P,U3,9,IO5*%
%TO.N,/GPIO5*%
X67775000Y-71550000D03*
%TO.P,U3,10,IO6*%
%TO.N,/GPIO6*%
X67775000Y-72400000D03*
%TO.P,U3,11,IO7*%
%TO.N,/GPIO7*%
X67775000Y-73250000D03*
%TO.P,U3,12,IO8*%
%TO.N,/GPIO8*%
X67775000Y-74100000D03*
%TO.P,U3,13,IO9*%
%TO.N,/GPIO9*%
X67775000Y-74950000D03*
%TO.P,U3,14,IO10*%
%TO.N,/GPIO10*%
X67775000Y-75800000D03*
%TO.P,U3,15,IO11*%
%TO.N,/GPIO11*%
X67775000Y-76650000D03*
D24*
%TO.P,U3,16,IO12*%
%TO.N,/GPIO12*%
X68825000Y-77700000D03*
%TO.P,U3,17,IO13*%
%TO.N,/GPIO13*%
X69675000Y-77700000D03*
%TO.P,U3,18,IO14*%
%TO.N,/GPIO14*%
X70525000Y-77700000D03*
%TO.P,U3,19,IO15*%
%TO.N,/GPIO15*%
X71375000Y-77700000D03*
%TO.P,U3,20,IO16*%
%TO.N,/GPIO16*%
X72225000Y-77700000D03*
%TO.P,U3,21,IO17*%
%TO.N,/I2C_SCL*%
X73075000Y-77700000D03*
%TO.P,U3,22,IO18*%
%TO.N,/I2C_SDA*%
X73925000Y-77700000D03*
%TO.P,U3,23,IO19*%
%TO.N,/USB_N*%
X74775000Y-77700000D03*
%TO.P,U3,24,IO20*%
%TO.N,/USB_P*%
X75625000Y-77700000D03*
%TO.P,U3,25,IO21*%
%TO.N,/GPIO21*%
X76475000Y-77700000D03*
%TO.P,U3,26,IO26*%
%TO.N,/GPIO26*%
X77325000Y-77700000D03*
%TO.P,U3,27,IO47*%
%TO.N,/GPIO47*%
X78175000Y-77700000D03*
%TO.P,U3,28,IO33*%
%TO.N,/GPIO33*%
X79025000Y-77700000D03*
%TO.P,U3,29,IO34*%
%TO.N,/GPIO34*%
X79875000Y-77700000D03*
%TO.P,U3,30,IO48*%
%TO.N,/GPIO48*%
X80725000Y-77700000D03*
D23*
%TO.P,U3,31,IO35*%
%TO.N,/GPIO35*%
X81775000Y-76650000D03*
%TO.P,U3,32,IO36*%
%TO.N,/GPIO36*%
X81775000Y-75800000D03*
%TO.P,U3,33,IO37*%
%TO.N,/GPIO37*%
X81775000Y-74950000D03*
%TO.P,U3,34,IO38*%
%TO.N,/GPIO38*%
X81775000Y-74100000D03*
%TO.P,U3,35,IO39*%
%TO.N,/GPIO39*%
X81775000Y-73250000D03*
%TO.P,U3,36,IO40*%
%TO.N,/GPIO40*%
X81775000Y-72400000D03*
%TO.P,U3,37,IO41*%
%TO.N,/GPIO41*%
X81775000Y-71550000D03*
%TO.P,U3,38,IO42*%
%TO.N,/GPIO42*%
X81775000Y-70700000D03*
%TO.P,U3,39,TXD0*%
%TO.N,/TXD*%
X81775000Y-69850000D03*
%TO.P,U3,40,RXD0*%
%TO.N,/RXD*%
X81775000Y-69000000D03*
%TO.P,U3,41,IO45*%
%TO.N,/GPIO45*%
X81775000Y-68150000D03*
%TO.P,U3,42,GND*%
%TO.N,GND*%
X81775000Y-67300000D03*
%TO.P,U3,43,GND*%
X81775000Y-66450000D03*
%TO.P,U3,44,IO46*%
%TO.N,/GPIO46*%
X81775000Y-65600000D03*
%TO.P,U3,45,EN*%
%TO.N,/ESP32_EN*%
X81775000Y-64750000D03*
D24*
%TO.P,U3,46,GND*%
%TO.N,GND*%
X80725000Y-63700000D03*
%TO.P,U3,47,GND*%
X79875000Y-63700000D03*
%TO.P,U3,48,GND*%
X79025000Y-63700000D03*
%TO.P,U3,49,GND*%
X78175000Y-63700000D03*
%TO.P,U3,50,GND*%
X77325000Y-63700000D03*
%TO.P,U3,51,GND*%
X76475000Y-63700000D03*
%TO.P,U3,52,GND*%
X75625000Y-63700000D03*
%TO.P,U3,53,GND*%
X74775000Y-63700000D03*
%TO.P,U3,54,GND*%
X73925000Y-63700000D03*
%TO.P,U3,55,GND*%
X73075000Y-63700000D03*
%TO.P,U3,56,GND*%
X72225000Y-63700000D03*
%TO.P,U3,57,GND*%
X71375000Y-63700000D03*
%TO.P,U3,58,GND*%
X70525000Y-63700000D03*
%TO.P,U3,59,GND*%
X69675000Y-63700000D03*
%TO.P,U3,60,GND*%
X68825000Y-63700000D03*
D25*
%TO.P,U3,61,GND*%
X73125000Y-69050000D03*
D26*
X73125000Y-70700000D03*
X73125000Y-72350000D03*
X74775000Y-69050000D03*
X74775000Y-70700000D03*
X74775000Y-72350000D03*
X76425000Y-69050000D03*
X76425000Y-70700000D03*
X76425000Y-72350000D03*
D27*
%TO.P,U3,62,GND*%
X67775000Y-63700000D03*
%TO.P,U3,63,GND*%
X67775000Y-77700000D03*
%TO.P,U3,64,GND*%
X81775000Y-77700000D03*
%TO.P,U3,65,GND*%
X81775000Y-63700000D03*
%TD*%
D15*
%TO.P,R6,1*%
%TO.N,/3V3*%
X75065000Y-89500000D03*
%TO.P,R6,2*%
%TO.N,Net-(U2-FB)*%
X73415000Y-89500000D03*
%TD*%
D28*
%TO.P,J1,A1,GND*%
%TO.N,GND*%
X71625000Y-117935000D03*
%TO.P,J1,A4,VBUS*%
%TO.N,/5VUSB*%
X72425000Y-117935000D03*
D29*
%TO.P,J1,A5,CC1*%
%TO.N,Net-(J1-CC1)*%
X73575000Y-117935000D03*
%TO.P,J1,A6,D+*%
%TO.N,/USB_N*%
X74575000Y-117935000D03*
%TO.P,J1,A7,D-*%
%TO.N,/USB_P*%
X75075000Y-117935000D03*
%TO.P,J1,A8,SBU1*%
%TO.N,unconnected-(J1-SBU1-PadA8)*%
X76075000Y-117935000D03*
D28*
%TO.P,J1,A9,VBUS*%
%TO.N,/5VUSB*%
X77225000Y-117935000D03*
%TO.P,J1,A12,GND*%
%TO.N,GND*%
X78025000Y-117935000D03*
%TO.P,J1,B1,GND*%
X78025000Y-117935000D03*
%TO.P,J1,B4,VBUS*%
%TO.N,/5VUSB*%
X77225000Y-117935000D03*
D29*
%TO.P,J1,B5,CC2*%
%TO.N,Net-(J1-CC2)*%
X76575000Y-117935000D03*
%TO.P,J1,B6,D+*%
%TO.N,/USB_N*%
X75575000Y-117935000D03*
%TO.P,J1,B7,D-*%
%TO.N,/USB_P*%
X74075000Y-117935000D03*
%TO.P,J1,B8,SBU2*%
%TO.N,unconnected-(J1-SBU2-PadB8)*%
X73075000Y-117935000D03*
D28*
%TO.P,J1,B9,VBUS*%
%TO.N,/5VUSB*%
X72425000Y-117935000D03*
%TO.P,J1,B12,GND*%
%TO.N,GND*%
X71625000Y-117935000D03*
D30*
%TO.P,J1,S1,SHIELD*%
X70505000Y-118510000D03*
D31*
X70505000Y-122690000D03*
D30*
X79145000Y-118510000D03*
D31*
X79145000Y-122690000D03*
%TD*%
D32*
%TO.P,U2,1,OUT*%
%TO.N,/3V3*%
X74600000Y-111175000D03*
%TO.P,U2,2,FB*%
%TO.N,Net-(U2-FB)*%
X74600000Y-111825000D03*
%TO.P,U2,3,GND*%
%TO.N,GND*%
X74600000Y-112475000D03*
%TO.P,U2,4,EN*%
%TO.N,/5VUSB*%
X76375000Y-112475000D03*
%TO.P,U2,5,DNC*%
%TO.N,unconnected-(U2-DNC-Pad5)*%
X76375000Y-111825000D03*
%TO.P,U2,6,IN*%
%TO.N,/5VUSB*%
X76375000Y-111175000D03*
D33*
%TO.P,U2,7,GND*%
%TO.N,GND*%
X75487500Y-111825000D03*
%TD*%
D20*
%TO.P,J2,1,Pin_1*%
%TO.N,/3V3*%
X63775000Y-64675000D03*
D21*
%TO.P,J2,2,Pin_2*%
%TO.N,/GPIO0*%
X63775000Y-67215000D03*
%TO.P,J2,3,Pin_3*%
%TO.N,/GPIO1*%
X63775000Y-69755000D03*
%TO.P,J2,4,Pin_4*%
%TO.N,/GPIO2*%
X63775000Y-72295000D03*
%TO.P,J2,5,Pin_5*%
%TO.N,/GPIO3*%
X63775000Y-74835000D03*
%TO.P,J2,6,Pin_6*%
%TO.N,/GPIO4*%
X63775000Y-77375000D03*
%TO.P,J2,7,Pin_7*%
%TO.N,/GPIO5*%
X63775000Y-79915000D03*
%TO.P,J2,8,Pin_8*%
%TO.N,/GPIO6*%
X63775000Y-82455000D03*
%TO.P,J2,9,Pin_9*%
%TO.N,/GPIO7*%
X63775000Y-84995000D03*
%TO.P,J2,10,Pin_10*%
%TO.N,/GPIO8*%
X63775000Y-87535000D03*
%TO.P,J2,11,Pin_11*%
%TO.N,/GPIO9*%
X63775000Y-90075000D03*
%TO.P,J2,12,Pin_12*%
%TO.N,/GPIO10*%
X63775000Y-92615000D03*
%TO.P,J2,13,Pin_13*%
%TO.N,/GPIO11*%
X63775000Y-95155000D03*
%TO.P,J2,14,Pin_14*%
%TO.N,/GPIO12*%
X63775000Y-97695000D03*
%TO.P,J2,15,Pin_15*%
%TO.N,/GPIO13*%
X63775000Y-100235000D03*
%TO.P,J2,16,Pin_16*%
%TO.N,/GPIO14*%
X63775000Y-102775000D03*
%TO.P,J2,17,Pin_17*%
%TO.N,/GPIO15*%
X63775000Y-105315000D03*
%TO.P,J2,18,Pin_18*%
%TO.N,/GPIO16*%
X63775000Y-107855000D03*
%TO.P,J2,19,Pin_19*%
%TO.N,/I2C_SCL*%
X63775000Y-110395000D03*
%TO.P,J2,20,Pin_20*%
%TO.N,/I2C_SDA*%
X63775000Y-112935000D03*
%TO.P,J2,21,Pin_21*%
%TO.N,/5VUSB*%
X63775000Y-115475000D03*
%TO.P,J2,22,Pin_22*%
%TO.N,GND*%
X63775000Y-118015000D03*
%TD*%
D22*
%TO.P,C7,1*%
%TO.N,/3V3*%
X79025000Y-89500000D03*
%TO.P,C7,2*%
%TO.N,GND*%
X77475000Y-89500000D03*
%TD*%
D11*
%TO.P,R8,1*%
%TO.N,/3V3*%
X78175000Y-93150000D03*
%TO.P,R8,2*%
%TO.N,Net-(D2-A)*%
X79825000Y-93150000D03*
%TD*%
D16*
%TO.P,SW2,1,1*%
%TO.N,GND*%
X75825000Y-105525000D03*
X79975000Y-105525000D03*
%TO.P,SW2,2,2*%
X75825000Y-107675000D03*
X79975000Y-107675000D03*
%TD*%
D10*
%TO.P,C2,1*%
%TO.N,/3V3*%
X76325000Y-86200000D03*
%TO.P,C2,2*%
%TO.N,GND*%
X76325000Y-87750000D03*
%TD*%
D22*
%TO.P,C4,1*%
%TO.N,/GPIO0*%
X77200000Y-80400000D03*
%TO.P,C4,2*%
%TO.N,GND*%
X75650000Y-80400000D03*
%TD*%
D34*
%TO.P,U1,1*%
%TO.N,/USB_N*%
X73475000Y-81750000D03*
%TO.P,U1,2*%
%TO.N,/USB_P*%
X73475000Y-82250000D03*
D35*
%TO.P,U1,3,VSS*%
%TO.N,GND*%
X73512500Y-82750000D03*
D34*
%TO.P,U1,4*%
%TO.N,/5VUSB*%
X73475000Y-83250000D03*
%TO.P,U1,5*%
%TO.N,unconnected-(U1-Pad5)*%
X73475000Y-83750000D03*
%TO.P,U1,6,NC*%
%TO.N,unconnected-(U1-NC-Pad6)*%
X74250000Y-83750000D03*
%TO.P,U1,7,NC*%
%TO.N,unconnected-(U1-NC-Pad7)*%
X74250000Y-83250000D03*
D36*
%TO.P,U1,8,VSS*%
%TO.N,GND*%
X74275000Y-82750000D03*
D34*
%TO.P,U1,9,NC*%
%TO.N,unconnected-(U1-NC-Pad9)*%
X74250000Y-82250000D03*
%TO.P,U1,10,NC*%
%TO.N,unconnected-(U1-NC-Pad10)*%
X74250000Y-81750000D03*
%TD*%
D37*
%TO.N,/3V3*%
X66550000Y-65450000D03*
X75975000Y-83775000D03*
X72025000Y-95350000D03*
X73283877Y-91400001D03*
X71900000Y-106250000D03*
%TO.N,GND*%
X75675000Y-79550000D03*
X69075000Y-94735000D03*
X69625000Y-76799998D03*
X68050000Y-91700000D03*
X79059313Y-76234313D03*
%TO.N,/ESP32_EN*%
X79025000Y-83150000D03*
X86125000Y-66175002D03*
%TO.N,/GPIO0*%
X69175000Y-67450000D03*
X76875735Y-79424265D03*
%TO.N,/5VUSB*%
X72800000Y-119350000D03*
X64875000Y-116525000D03*
X76425000Y-106350002D03*
X73675000Y-87175000D03*
%TO.N,/GPIO48*%
X76800000Y-94500000D03*
X79625000Y-76800000D03*
%TO.N,Net-(D2-A)*%
X79500000Y-94375000D03*
X75300000Y-94575000D03*
%TO.N,/USB_N*%
X72550000Y-90075000D03*
X75999265Y-116724265D03*
%TO.N,/USB_P*%
X75175000Y-116700000D03*
X85232189Y-114282573D03*
X82425000Y-112600000D03*
%TO.N,Net-(J1-CC2)*%
X73625000Y-113525000D03*
X71300000Y-91400000D03*
%TO.N,Net-(J1-CC1)*%
X73425000Y-116750000D03*
X70375000Y-93900000D03*
%TO.N,/I2C_SDA*%
X71225156Y-90556976D03*
X66675000Y-112225000D03*
%TO.N,/GPIO10*%
X68665292Y-75248058D03*
X63025000Y-91550000D03*
%TO.N,/I2C_SCL*%
X80760000Y-92600000D03*
%TO.N,/GPIO21*%
X83175000Y-107925000D03*
%TO.N,/GPIO37*%
X80450000Y-74900000D03*
X86125000Y-91725000D03*
%TO.N,/GPIO39*%
X80725000Y-73125000D03*
X86475000Y-86475000D03*
%TO.N,/GPIO36*%
X86375000Y-93975000D03*
X80959094Y-75517112D03*
%TO.N,/GPIO38*%
X86475000Y-89600000D03*
X79925691Y-73091696D03*
%TO.N,Net-(U2-FB)*%
X73408871Y-90554834D03*
X73325000Y-93725000D03*
X73575000Y-111550000D03*
%TD*%
D38*
%TO.N,/3V3*%
X76325000Y-84900000D02*
X76875000Y-84350000D01*
X73575000Y-110150000D02*
X74600000Y-111175000D01*
X79610000Y-86975000D02*
X78835000Y-86200000D01*
X76550000Y-84350000D02*
X75975000Y-83775000D01*
X70350000Y-110150000D02*
X71950000Y-110150000D01*
X79025000Y-89500000D02*
X79610000Y-88915000D01*
X78175000Y-93150000D02*
X78175000Y-91300000D01*
X76325000Y-86200000D02*
X78835000Y-86200000D01*
X74190000Y-90375000D02*
X75065000Y-89500000D01*
X73408878Y-91275000D02*
X73283877Y-91400001D01*
X78175000Y-91300000D02*
X78150000Y-91275000D01*
X71950000Y-106300000D02*
X71900000Y-106250000D01*
X66550000Y-65450000D02*
X65775000Y-64675000D01*
X72325000Y-95875000D02*
X72050000Y-96150000D01*
X72325000Y-92700000D02*
X72325000Y-95875000D01*
X75065000Y-89500000D02*
X75065000Y-87460000D01*
X79610000Y-88915000D02*
X79610000Y-86975000D01*
X74190000Y-91275000D02*
X73408878Y-91275000D01*
X78150000Y-91275000D02*
X78150000Y-90375000D01*
X74190000Y-91275000D02*
X74190000Y-90375000D01*
X78150000Y-93125000D02*
X78175000Y-93150000D01*
X76875000Y-84350000D02*
X76550000Y-84350000D01*
X72025000Y-96125000D02*
X72050000Y-96150000D01*
X71950000Y-110150000D02*
X73575000Y-110150000D01*
X76325000Y-86200000D02*
X76325000Y-84900000D01*
X72025000Y-95350000D02*
X72025000Y-96125000D01*
X63775000Y-64675000D02*
X65550000Y-66450000D01*
X70302500Y-111350000D02*
X70302500Y-110197500D01*
X70302500Y-110197500D02*
X70350000Y-110150000D01*
X71950000Y-110150000D02*
X71950000Y-106300000D01*
X65775000Y-64675000D02*
X63775000Y-64675000D01*
X65550000Y-66450000D02*
X67775000Y-66450000D01*
X75065000Y-87460000D02*
X76325000Y-86200000D01*
X78150000Y-90375000D02*
X79025000Y-89500000D01*
%TO.N,GND*%
X67775000Y-65600000D02*
X67775000Y-63700000D01*
X74775000Y-70700000D02*
X73125000Y-70700000D01*
X75650000Y-79575000D02*
X75675000Y-79550000D01*
X79025000Y-63900000D02*
X79025000Y-63700000D01*
X68900000Y-92925000D02*
X68900000Y-94560000D01*
X69975000Y-104400000D02*
X69975000Y-104425000D01*
X81775000Y-77700000D02*
X81725000Y-77700000D01*
X81575000Y-66450000D02*
X79025000Y-63900000D01*
X69625000Y-76799998D02*
X69625000Y-76475000D01*
X72925000Y-105625000D02*
X71200000Y-105625000D01*
X75487500Y-111825000D02*
X74512500Y-112800000D01*
X76425000Y-69050000D02*
X76425000Y-72350000D01*
X75900000Y-98400000D02*
X75900000Y-93585000D01*
X68900000Y-92925000D02*
X68900000Y-91350000D01*
X75960000Y-93045000D02*
X74965000Y-92050000D01*
X69625000Y-92075000D02*
X71762352Y-92075000D01*
X78255000Y-119950000D02*
X71920406Y-119950000D01*
X78600000Y-118510000D02*
X78025000Y-117935000D01*
X79181126Y-76112500D02*
X80187500Y-76112500D01*
X68900000Y-91350000D02*
X68850000Y-91300000D01*
X71400000Y-113625000D02*
X71625000Y-113850000D01*
X69312500Y-76162500D02*
X67775000Y-77700000D01*
X70505000Y-118534594D02*
X70505000Y-118510000D01*
X71050000Y-118510000D02*
X71625000Y-117935000D01*
X74775000Y-69050000D02*
X74775000Y-63700000D01*
X75650000Y-81375000D02*
X74275000Y-82750000D01*
X71625000Y-113850000D02*
X71625000Y-117935000D01*
X79059313Y-76234313D02*
X79181126Y-76112500D01*
X75650000Y-80400000D02*
X75650000Y-79575000D01*
X75960000Y-93265000D02*
X75960000Y-93045000D01*
X79145000Y-118510000D02*
X78600000Y-118510000D01*
X73125000Y-69050000D02*
X76425000Y-69050000D01*
X69975000Y-102775000D02*
X69975000Y-104400000D01*
X84250000Y-63700000D02*
X85375000Y-64825000D01*
X79975000Y-105525000D02*
X79975000Y-107675000D01*
X74965000Y-92050000D02*
X75740000Y-91275000D01*
X75825000Y-111487500D02*
X75487500Y-111825000D01*
X68450000Y-91300000D02*
X68050000Y-91700000D01*
X75825000Y-107675000D02*
X73025000Y-107675000D01*
X76325000Y-87750000D02*
X76325000Y-87025000D01*
X68850000Y-91300000D02*
X69625000Y-92075000D01*
X70505000Y-122690000D02*
X70505000Y-118510000D01*
X68775000Y-107775000D02*
X68775000Y-105625000D01*
X79145000Y-122690000D02*
X79145000Y-118510000D01*
X75825000Y-107675000D02*
X75825000Y-111487500D01*
X75650000Y-80400000D02*
X75650000Y-81375000D01*
X71200000Y-105625000D02*
X69975000Y-104400000D01*
X81775000Y-66450000D02*
X81575000Y-66450000D01*
X80187500Y-76112500D02*
X76425000Y-72350000D01*
X71827500Y-110825000D02*
X72802500Y-111800000D01*
X68900000Y-94560000D02*
X69075000Y-94735000D01*
X74512500Y-112800000D02*
X72802500Y-112800000D01*
X73741304Y-92050000D02*
X74965000Y-92050000D01*
X77475000Y-88900000D02*
X76325000Y-87750000D01*
X75740000Y-91235000D02*
X77475000Y-89500000D01*
X69975000Y-104425000D02*
X68775000Y-105625000D01*
X72925000Y-105625000D02*
X72925000Y-107775000D01*
X80100000Y-115860000D02*
X78025000Y-117935000D01*
X81225000Y-77150000D02*
X80187500Y-76112500D01*
X75825000Y-105525000D02*
X75825000Y-107675000D01*
X71837352Y-92000000D02*
X73691304Y-92000000D01*
X71252500Y-111825000D02*
X71252500Y-111375000D01*
X76325000Y-82050000D02*
X75650000Y-81375000D01*
X76325000Y-87750000D02*
X78835000Y-87750000D01*
X68850000Y-91300000D02*
X68450000Y-91300000D01*
X80100000Y-115125000D02*
X80100000Y-115860000D01*
X75825000Y-105525000D02*
X79975000Y-105525000D01*
X71252500Y-111375000D02*
X71802500Y-110825000D01*
X77150000Y-82050000D02*
X76325000Y-82050000D01*
X71920406Y-119950000D02*
X70505000Y-118534594D01*
X71802500Y-110825000D02*
X71827500Y-110825000D01*
X81225000Y-77200000D02*
X81225000Y-77150000D01*
X73025000Y-107675000D02*
X72925000Y-107775000D01*
X72802500Y-111800000D02*
X72802500Y-112800000D01*
X76425000Y-72350000D02*
X73125000Y-72350000D01*
X71762352Y-92075000D02*
X71837352Y-92000000D01*
X81775000Y-67300000D02*
X81775000Y-66450000D01*
X70505000Y-118510000D02*
X71050000Y-118510000D01*
X73125000Y-72350000D02*
X69312500Y-76162500D01*
X81725000Y-77700000D02*
X81225000Y-77200000D01*
X76950000Y-99450000D02*
X76950000Y-104400000D01*
X67775000Y-63700000D02*
X81775000Y-63700000D01*
X79145000Y-118510000D02*
X79145000Y-119060000D01*
X70010000Y-118015000D02*
X70505000Y-118510000D01*
X76950000Y-104400000D02*
X75825000Y-105525000D01*
X74775000Y-72350000D02*
X74775000Y-70700000D01*
X77475000Y-89500000D02*
X77475000Y-88900000D01*
X73691304Y-92000000D02*
X73741304Y-92050000D01*
X81775000Y-63700000D02*
X84250000Y-63700000D01*
X79145000Y-119060000D02*
X78255000Y-119950000D01*
X76950000Y-99450000D02*
X75900000Y-98400000D01*
X75900000Y-93585000D02*
X75960000Y-93525000D01*
X75740000Y-91275000D02*
X75740000Y-91235000D01*
X69625000Y-76475000D02*
X69312500Y-76162500D01*
X71977500Y-113625000D02*
X71400000Y-113625000D01*
X72802500Y-112800000D02*
X71977500Y-113625000D01*
X69175000Y-94835000D02*
X69075000Y-94735000D01*
X63775000Y-118015000D02*
X70010000Y-118015000D01*
X73512500Y-82750000D02*
X74275000Y-82750000D01*
%TO.N,/ESP32_EN*%
X84225000Y-65350000D02*
X84225000Y-66215000D01*
X81775000Y-64750000D02*
X83625000Y-64750000D01*
X86125000Y-66615000D02*
X85375000Y-67365000D01*
X83625000Y-64750000D02*
X84225000Y-65350000D01*
X78700000Y-82050000D02*
X78700000Y-82825000D01*
X78525000Y-82225000D02*
X78700000Y-82050000D01*
X84225000Y-66215000D02*
X85375000Y-67365000D01*
X78700000Y-82825000D02*
X79025000Y-83150000D01*
X78525000Y-84350000D02*
X78525000Y-82225000D01*
X86125000Y-66175002D02*
X86125000Y-66615000D01*
%TO.N,/GPIO0*%
X69175000Y-67450000D02*
X67925000Y-67450000D01*
X77200000Y-80400000D02*
X77200000Y-79748530D01*
X67925000Y-67450000D02*
X67775000Y-67300000D01*
X77200000Y-79748530D02*
X76875735Y-79424265D01*
X67690000Y-67215000D02*
X67775000Y-67300000D01*
X63775000Y-67215000D02*
X67690000Y-67215000D01*
%TO.N,/5VUSB*%
X72862500Y-86362500D02*
X72862500Y-83362500D01*
X72800000Y-118884999D02*
X72425000Y-118509999D01*
X76425000Y-106525000D02*
X76425000Y-106350002D01*
X72425000Y-117935000D02*
X72425000Y-118392410D01*
X78550000Y-115125000D02*
X77375000Y-115125000D01*
X77225000Y-115275000D02*
X77225000Y-117935000D01*
X72862500Y-83362500D02*
X72950000Y-83275000D01*
X72425000Y-118509999D02*
X72425000Y-117935000D01*
X72950000Y-83275000D02*
X73500000Y-83275000D01*
X72800000Y-119350000D02*
X72800000Y-118884999D01*
X77375000Y-115125000D02*
X77225000Y-115275000D01*
X76067410Y-119550000D02*
X77225000Y-118392410D01*
X76375000Y-112475000D02*
X77225000Y-113325000D01*
X73675000Y-87175000D02*
X72862500Y-86362500D01*
X76375000Y-112475000D02*
X76562499Y-112475000D01*
X77225000Y-113325000D02*
X77225000Y-115275000D01*
X76375000Y-110512500D02*
X76862500Y-110025000D01*
X77225000Y-118392410D02*
X77225000Y-117935000D01*
X76375000Y-106575000D02*
X76425000Y-106525000D01*
X76862500Y-110025000D02*
X76862500Y-107062500D01*
X73582590Y-119550000D02*
X76067410Y-119550000D01*
X76375000Y-111175000D02*
X76375000Y-110512500D01*
X76862500Y-107062500D02*
X76375000Y-106575000D01*
X63825000Y-115475000D02*
X64875000Y-116525000D01*
X76862500Y-112174999D02*
X76862500Y-110025000D01*
X76562499Y-112475000D02*
X76862500Y-112174999D01*
X63775000Y-115475000D02*
X63825000Y-115475000D01*
X72425000Y-118392410D02*
X73582590Y-119550000D01*
%TO.N,/GPIO48*%
X85851346Y-119315000D02*
X86525000Y-118641346D01*
X76800000Y-96000000D02*
X76950000Y-96150000D01*
X76950000Y-96150000D02*
X78850000Y-98050000D01*
X86525000Y-116775000D02*
X85375000Y-115625000D01*
X81750000Y-116166346D02*
X84898654Y-119315000D01*
X80800000Y-99275000D02*
X80800000Y-109750000D01*
X79575000Y-98050000D02*
X80800000Y-99275000D01*
X80725000Y-77500000D02*
X80025000Y-76800000D01*
X80800000Y-109750000D02*
X81750000Y-110700000D01*
X80725000Y-77700000D02*
X80725000Y-77500000D01*
X78850000Y-98050000D02*
X79575000Y-98050000D01*
X84898654Y-119315000D02*
X85851346Y-119315000D01*
X80025000Y-76800000D02*
X79625000Y-76800000D01*
X81750000Y-110700000D02*
X81750000Y-116166346D01*
X76800000Y-94500000D02*
X76800000Y-96000000D01*
X86525000Y-118641346D02*
X86525000Y-116775000D01*
%TO.N,Net-(D2-A)*%
X73525000Y-94700000D02*
X73375000Y-94550000D01*
X73525000Y-98225000D02*
X73525000Y-94700000D01*
X73525000Y-100800000D02*
X73525000Y-98225000D01*
X79500000Y-93475000D02*
X79825000Y-93150000D01*
X73375000Y-94550000D02*
X75275000Y-94550000D01*
X79500000Y-94375000D02*
X79500000Y-93475000D01*
X71550000Y-102775000D02*
X73525000Y-100800000D01*
X75275000Y-94550000D02*
X75300000Y-94575000D01*
%TO.N,/USB_N*%
X75315000Y-118810000D02*
X75575000Y-118550000D01*
X71950000Y-83075000D02*
X71950000Y-89600000D01*
X70987058Y-81750000D02*
X70806029Y-81931029D01*
X75575000Y-118550000D02*
X75575000Y-117935000D01*
X74775000Y-78050000D02*
X74425000Y-78400000D01*
X72075000Y-89600000D02*
X72550000Y-90075000D01*
X74575000Y-117935000D02*
X74575000Y-118542410D01*
X74425000Y-78400000D02*
X74025000Y-78400000D01*
X74842590Y-118810000D02*
X75315000Y-118810000D01*
X74775000Y-77700000D02*
X74775000Y-78050000D01*
X73300000Y-81575000D02*
X73475000Y-81750000D01*
X73300000Y-79125000D02*
X73300000Y-81575000D01*
X70806029Y-81931029D02*
X71950000Y-83075000D01*
X74575000Y-118542410D02*
X74842590Y-118810000D01*
X73475000Y-81750000D02*
X70987058Y-81750000D01*
X74025000Y-78400000D02*
X73300000Y-79125000D01*
X71950000Y-89600000D02*
X72075000Y-89600000D01*
X75575000Y-117148530D02*
X75999265Y-116724265D01*
X75575000Y-117935000D02*
X75575000Y-117148530D01*
%TO.N,/USB_P*%
X85375000Y-113085000D02*
X85375000Y-114139762D01*
X80400000Y-89487352D02*
X78900000Y-90987352D01*
X77825000Y-83862352D02*
X77825000Y-84837648D01*
X78337352Y-85350000D02*
X79250000Y-85350000D01*
X75625000Y-77900000D02*
X74175000Y-79350000D01*
X75451471Y-78925000D02*
X76024999Y-78925000D01*
X82325000Y-112075000D02*
X82325000Y-112500000D01*
X78900000Y-90987352D02*
X78900000Y-96809314D01*
X74175000Y-79350000D02*
X74175000Y-80900000D01*
X74037500Y-82225000D02*
X73475000Y-82225000D01*
X74342590Y-117060000D02*
X74075000Y-117327590D01*
X74175000Y-80900000D02*
X74175000Y-82087500D01*
X76275735Y-79175736D02*
X76275735Y-79752039D01*
X76450000Y-79926304D02*
X76450000Y-80873696D01*
X77825000Y-84837648D02*
X78337352Y-85350000D01*
X74807410Y-117060000D02*
X74342590Y-117060000D01*
X80400000Y-86500000D02*
X80400000Y-86675000D01*
X75075000Y-116800000D02*
X75075000Y-117935000D01*
X76024999Y-78925000D02*
X76275735Y-79175736D01*
X81200000Y-99109314D02*
X81200000Y-109584314D01*
X75175000Y-116700000D02*
X75075000Y-116800000D01*
X77950000Y-83737352D02*
X77825000Y-83862352D01*
X78900000Y-96809314D02*
X81200000Y-99109314D01*
X75075000Y-117327590D02*
X74807410Y-117060000D01*
X77631539Y-81257843D02*
X77950000Y-81576304D01*
X82325000Y-110709314D02*
X82325000Y-112075000D01*
X75075000Y-117935000D02*
X75075000Y-117327590D01*
X81200000Y-109584314D02*
X82325000Y-110709314D01*
X74175000Y-82087500D02*
X74037500Y-82225000D01*
X75625000Y-77700000D02*
X75625000Y-77900000D01*
X74075000Y-117327590D02*
X74075000Y-117935000D01*
X79250000Y-85350000D02*
X80400000Y-86500000D01*
X77950000Y-81576304D02*
X77950000Y-83737352D01*
X76450000Y-80873696D02*
X76834147Y-81257843D01*
X80400000Y-86675000D02*
X80400000Y-89487352D01*
X76834147Y-81257843D02*
X77631539Y-81257843D01*
X82325000Y-112500000D02*
X82425000Y-112600000D01*
X74175000Y-80201471D02*
X75451471Y-78925000D01*
X74175000Y-80900000D02*
X74175000Y-80201471D01*
X76275735Y-79752039D02*
X76450000Y-79926304D01*
X85375000Y-114139762D02*
X85232189Y-114282573D01*
%TO.N,Net-(J1-CC2)*%
X70500000Y-91325000D02*
X70575000Y-91400000D01*
X76550000Y-114550000D02*
X74650000Y-114550000D01*
X76575000Y-117935000D02*
X76575000Y-117360001D01*
X70600000Y-91400000D02*
X70500000Y-91300000D01*
X76599265Y-117335736D02*
X76599265Y-114599265D01*
X71300000Y-91400000D02*
X70600000Y-91400000D01*
X70500000Y-91300000D02*
X70500000Y-91325000D01*
X76575000Y-117360001D02*
X76599265Y-117335736D01*
X74650000Y-114550000D02*
X73625000Y-113525000D01*
X76599265Y-114599265D02*
X76550000Y-114550000D01*
%TO.N,Net-(J1-CC1)*%
X73425000Y-116750000D02*
X73575000Y-116900000D01*
X73575000Y-116900000D02*
X73575000Y-117935000D01*
X70550000Y-93725000D02*
X70375000Y-93900000D01*
X70550000Y-92925000D02*
X70550000Y-93725000D01*
%TO.N,/I2C_SDA*%
X71225156Y-90556976D02*
X71831976Y-90556976D01*
X73925000Y-77700000D02*
X73925000Y-77900000D01*
X69475000Y-82696372D02*
X69475000Y-88200000D01*
X71717500Y-112935000D02*
X72202500Y-112450000D01*
X72202500Y-112450000D02*
X72202500Y-112300000D01*
X70765686Y-81059314D02*
X70765686Y-81405686D01*
X66775000Y-112935000D02*
X66775000Y-112325000D01*
X63775000Y-112935000D02*
X66775000Y-112935000D01*
X69475000Y-88200000D02*
X72325000Y-91050000D01*
X66775000Y-112935000D02*
X71717500Y-112935000D01*
X73925000Y-77900000D02*
X70765686Y-81059314D01*
X66775000Y-112325000D02*
X66675000Y-112225000D01*
X70765686Y-81405686D02*
X69475000Y-82696372D01*
X71831976Y-90556976D02*
X72325000Y-91050000D01*
%TO.N,/GPIO16*%
X69545343Y-81076029D02*
X68696371Y-81925000D01*
X68555686Y-89194314D02*
X67050000Y-90700000D01*
X72225000Y-77700000D02*
X72225000Y-77900000D01*
X68696371Y-81925000D02*
X68555686Y-82065685D01*
X67050000Y-96682743D02*
X66765684Y-96967058D01*
X66765684Y-96967058D02*
X66765684Y-100950001D01*
X70004657Y-80120343D02*
X69870343Y-80120343D01*
X67050000Y-90700000D02*
X67050000Y-96682743D01*
X65650000Y-105980000D02*
X63775000Y-107855000D01*
X69870343Y-80751028D02*
X69545343Y-81076028D01*
X72225000Y-77900000D02*
X70004657Y-80120343D01*
X69545343Y-81076028D02*
X69545343Y-81076029D01*
X68555686Y-82065685D02*
X68555686Y-89194314D01*
X69870343Y-80120343D02*
X69870343Y-80751028D01*
X66765684Y-100950001D02*
X65650000Y-102065685D01*
X65650000Y-102065685D02*
X65650000Y-105980000D01*
%TO.N,/GPIO12*%
X68825000Y-77900000D02*
X67825000Y-78900000D01*
X66955686Y-80675000D02*
X66955686Y-88260000D01*
X67325000Y-80305686D02*
X66955686Y-80675000D01*
X68825000Y-77700000D02*
X68825000Y-77900000D01*
X65400000Y-96070000D02*
X63775000Y-97695000D01*
X65400000Y-89815685D02*
X65400000Y-96070000D01*
X66955686Y-88260000D02*
X66721371Y-88494314D01*
X67325000Y-78900000D02*
X67325000Y-80305686D01*
X66721371Y-88494314D02*
X65400000Y-89815685D01*
X67825000Y-78900000D02*
X67325000Y-78900000D01*
%TO.N,/GPIO6*%
X63775000Y-82455000D02*
X64925000Y-81305000D01*
X64871016Y-79384670D02*
X65325000Y-78930686D01*
X64925000Y-79438654D02*
X64871016Y-79384670D01*
X66125000Y-72400000D02*
X67775000Y-72400000D01*
X65325000Y-78930686D02*
X65325000Y-76042718D01*
X65725000Y-75642718D02*
X65725000Y-74665686D01*
X65725000Y-74665686D02*
X66125000Y-74265686D01*
X66125000Y-74265686D02*
X66125000Y-72400000D01*
X65325000Y-76042718D02*
X65725000Y-75642718D01*
X64925000Y-81305000D02*
X64925000Y-79438654D01*
%TO.N,/GPIO9*%
X66155686Y-87694314D02*
X63775000Y-90075000D01*
X67575000Y-74950000D02*
X66975000Y-75550000D01*
X67775000Y-74950000D02*
X67575000Y-74950000D01*
X66125000Y-81409314D02*
X66155686Y-81440000D01*
X66155686Y-81440000D02*
X66155686Y-87694314D01*
X66525000Y-79427743D02*
X66125000Y-79827743D01*
X66125000Y-79827743D02*
X66125000Y-81409314D01*
X66975000Y-76089776D02*
X66525000Y-76539776D01*
X66975000Y-75550000D02*
X66975000Y-76089776D01*
X66525000Y-76539776D02*
X66525000Y-79427743D01*
%TO.N,/GPIO11*%
X65000000Y-89650000D02*
X65000000Y-93930000D01*
X66555686Y-88094314D02*
X65000000Y-89650000D01*
X65000000Y-93930000D02*
X63775000Y-95155000D01*
X66555686Y-80230686D02*
X66555686Y-88094314D01*
X67175000Y-76650000D02*
X66925000Y-76900000D01*
X66925000Y-76900000D02*
X66925000Y-79800000D01*
X66525000Y-80200000D02*
X66555686Y-80230686D01*
X67775000Y-76650000D02*
X67175000Y-76650000D01*
X66925000Y-79800000D02*
X66525000Y-80200000D01*
%TO.N,/GPIO1*%
X63775000Y-69755000D02*
X65380000Y-68150000D01*
X65380000Y-68150000D02*
X67775000Y-68150000D01*
%TO.N,/GPIO4*%
X64050000Y-77100000D02*
X64050000Y-75985000D01*
X63775000Y-77375000D02*
X64050000Y-77100000D01*
X64925000Y-75311346D02*
X64925000Y-74358654D01*
X64251346Y-75985000D02*
X64925000Y-75311346D01*
X64925000Y-74358654D02*
X64895673Y-74329327D01*
X65325000Y-70981372D02*
X65606372Y-70700000D01*
X64050000Y-75985000D02*
X64251346Y-75985000D01*
X64895673Y-74329327D02*
X65325000Y-73900000D01*
X65325000Y-73900000D02*
X65325000Y-70981372D01*
X65606372Y-70700000D02*
X67775000Y-70700000D01*
%TO.N,/GPIO15*%
X63775000Y-105315000D02*
X65250000Y-103840000D01*
X69145343Y-79845343D02*
X69579657Y-79845343D01*
X65250000Y-101900000D02*
X66051371Y-101098629D01*
X68155686Y-81900000D02*
X69145343Y-80910343D01*
X66051371Y-97115685D02*
X66599999Y-96567058D01*
X66051371Y-101098629D02*
X66051371Y-97115685D01*
X69145343Y-80910343D02*
X69145343Y-79845343D01*
X71375000Y-78050000D02*
X71375000Y-77700000D01*
X66650000Y-96517057D02*
X66650000Y-90481371D01*
X65250000Y-103840000D02*
X65250000Y-101900000D01*
X66650000Y-90481371D02*
X68155686Y-88975685D01*
X69579657Y-79845343D02*
X71375000Y-78050000D01*
X66599999Y-96567058D02*
X66650000Y-96517057D01*
X68155686Y-88975685D02*
X68155686Y-81900000D01*
%TO.N,/GPIO2*%
X65372500Y-69552500D02*
X65925000Y-69000000D01*
X63775000Y-71400000D02*
X65372500Y-69802500D01*
X63775000Y-72295000D02*
X63775000Y-71400000D01*
X65925000Y-69000000D02*
X67775000Y-69000000D01*
X65372500Y-69802500D02*
X65372500Y-69552500D01*
%TO.N,/GPIO8*%
X65755686Y-85554314D02*
X65755686Y-81605686D01*
X65755686Y-81605686D02*
X65725000Y-81575000D01*
X63775000Y-87535000D02*
X65755686Y-85554314D01*
X67575000Y-74100000D02*
X67775000Y-74100000D01*
X66125000Y-79262058D02*
X66125000Y-76374090D01*
X65725000Y-79662058D02*
X66125000Y-79262058D01*
X66575000Y-75924090D02*
X66575000Y-75100000D01*
X66575000Y-75100000D02*
X67575000Y-74100000D01*
X65725000Y-81575000D02*
X65725000Y-79662058D01*
X66125000Y-76374090D02*
X66575000Y-75924090D01*
%TO.N,/GPIO13*%
X65800000Y-96235686D02*
X65800000Y-90200000D01*
X67725000Y-79475000D02*
X68250000Y-79475000D01*
X65192843Y-98817157D02*
X65192843Y-96842843D01*
X67725000Y-80855686D02*
X67725000Y-79475000D01*
X67100000Y-88900000D02*
X67100000Y-88681371D01*
X63775000Y-100235000D02*
X65192843Y-98817157D01*
X67355686Y-88425685D02*
X67355686Y-81225000D01*
X65800000Y-90200000D02*
X67100000Y-88900000D01*
X65192843Y-96842843D02*
X65800000Y-96235686D01*
X67100000Y-88681371D02*
X67355686Y-88425685D01*
X69675000Y-78050000D02*
X69675000Y-77700000D01*
X68250000Y-79475000D02*
X69675000Y-78050000D01*
X67355686Y-81225000D02*
X67725000Y-80855686D01*
%TO.N,/GPIO7*%
X67575000Y-73250000D02*
X67775000Y-73250000D01*
X63775000Y-84995000D02*
X65147843Y-83622157D01*
X65725000Y-79096372D02*
X65725000Y-76208404D01*
X65725000Y-76208404D02*
X66175000Y-75758404D01*
X66175000Y-74781372D02*
X66525000Y-74431372D01*
X65325000Y-79496372D02*
X65725000Y-79096372D01*
X66175000Y-75758404D02*
X66175000Y-74781372D01*
X67400000Y-73075000D02*
X67575000Y-73250000D01*
X66525000Y-73075000D02*
X67400000Y-73075000D01*
X65147843Y-81647843D02*
X65325000Y-81470686D01*
X65325000Y-81470686D02*
X65325000Y-79496372D01*
X66525000Y-74431372D02*
X66525000Y-73075000D01*
X65147843Y-83622157D02*
X65147843Y-81647843D01*
%TO.N,/GPIO14*%
X66215685Y-90350000D02*
X66215685Y-96385686D01*
X66215685Y-96385686D02*
X66200000Y-96401371D01*
X70525000Y-77700000D02*
X70525000Y-77900000D01*
X68495343Y-79795343D02*
X68495343Y-80860343D01*
X68629657Y-79795343D02*
X68495343Y-79795343D01*
X68495343Y-80860343D02*
X67755686Y-81600000D01*
X66200000Y-96401371D02*
X66200000Y-96401372D01*
X67755686Y-88809999D02*
X66215685Y-90350000D01*
X65651371Y-96950000D02*
X65651371Y-100898629D01*
X70525000Y-77900000D02*
X68629657Y-79795343D01*
X66200000Y-96401372D02*
X65651371Y-96950000D01*
X65651371Y-100898629D02*
X63775000Y-102775000D01*
X67755686Y-81600000D02*
X67755686Y-88809999D01*
%TO.N,/GPIO10*%
X68665292Y-75248058D02*
X68113350Y-75800000D01*
X68113350Y-75800000D02*
X67775000Y-75800000D01*
X63775000Y-92300000D02*
X63025000Y-91550000D01*
X63775000Y-92615000D02*
X63775000Y-92300000D01*
%TO.N,/I2C_SCL*%
X65495685Y-106700000D02*
X65495685Y-108674315D01*
X70365686Y-81240000D02*
X68955686Y-82650000D01*
X68955686Y-89744314D02*
X67450000Y-91250000D01*
X65495685Y-108674315D02*
X63775000Y-110395000D01*
X66275000Y-102025000D02*
X66275000Y-105920685D01*
X67165684Y-101134316D02*
X66275000Y-102025000D01*
X68955686Y-82650000D02*
X68955686Y-89744314D01*
X67450000Y-91250000D02*
X67450000Y-97140684D01*
X66050000Y-106145685D02*
X66050000Y-106145686D01*
X70365686Y-80325000D02*
X70365686Y-81240000D01*
X66050000Y-106145686D02*
X65495685Y-106700000D01*
X66275000Y-105920685D02*
X66050000Y-106145685D01*
X67165684Y-97425000D02*
X67165684Y-101134316D01*
X68397500Y-110395000D02*
X70302500Y-112300000D01*
X63775000Y-110395000D02*
X68397500Y-110395000D01*
X73075000Y-77700000D02*
X73075000Y-78112057D01*
X73075000Y-78112057D02*
X70862057Y-80325000D01*
X79800000Y-91640000D02*
X80760000Y-92600000D01*
X79800000Y-91275000D02*
X79800000Y-91640000D01*
X67450000Y-97140684D02*
X67165684Y-97425000D01*
X70862057Y-80325000D02*
X70365686Y-80325000D01*
%TO.N,/GPIO3*%
X64925000Y-73685000D02*
X64925000Y-70815686D01*
X63775000Y-74835000D02*
X64925000Y-73685000D01*
X65772500Y-69850000D02*
X67775000Y-69850000D01*
X64925000Y-70815686D02*
X65772500Y-69968186D01*
X65772500Y-69968186D02*
X65772500Y-69850000D01*
%TO.N,/GPIO5*%
X65325000Y-74500000D02*
X65725000Y-74100000D01*
X64468173Y-76333859D02*
X65325000Y-75477032D01*
X64925000Y-78765000D02*
X64925000Y-76790686D01*
X65725000Y-74100000D02*
X65725000Y-71225000D01*
X65325000Y-75477032D02*
X65325000Y-74500000D01*
X65725000Y-71225000D02*
X67450000Y-71225000D01*
X63775000Y-79915000D02*
X64925000Y-78765000D01*
X64925000Y-76790686D02*
X64468173Y-76333859D01*
X67450000Y-71225000D02*
X67775000Y-71550000D01*
%TO.N,/GPIO34*%
X82917157Y-83950000D02*
X82917157Y-96092157D01*
X82225000Y-83257843D02*
X82917157Y-83950000D01*
X79875000Y-77900000D02*
X80900000Y-78925000D01*
X84075000Y-99085000D02*
X85375000Y-100385000D01*
X82225000Y-78925000D02*
X82225000Y-83257843D01*
X80900000Y-78925000D02*
X82225000Y-78925000D01*
X79875000Y-77700000D02*
X79875000Y-77900000D01*
X82917157Y-96092157D02*
X84075000Y-97250000D01*
X84075000Y-97250000D02*
X84075000Y-99085000D01*
%TO.N,/GPIO47*%
X78175000Y-77900000D02*
X80000000Y-79725000D01*
X80000000Y-79725000D02*
X80050000Y-79725000D01*
X81425000Y-80375000D02*
X81425000Y-83950000D01*
X83775000Y-116565000D02*
X85375000Y-118165000D01*
X80700000Y-80375000D02*
X81425000Y-80375000D01*
X80050000Y-79725000D02*
X80700000Y-80375000D01*
X82050000Y-89575000D02*
X82050000Y-96440686D01*
X83117157Y-97507843D02*
X83117157Y-101342157D01*
X83775000Y-102000000D02*
X83775000Y-116565000D01*
X82100000Y-84625000D02*
X82100000Y-89525000D01*
X82100000Y-89525000D02*
X82050000Y-89575000D01*
X78175000Y-77700000D02*
X78175000Y-77900000D01*
X83117157Y-101342157D02*
X83775000Y-102000000D01*
X82050000Y-96440686D02*
X83117157Y-97507843D01*
X81425000Y-83950000D02*
X82100000Y-84625000D01*
%TO.N,/GPIO41*%
X83425000Y-78680686D02*
X84278984Y-79534670D01*
X82459315Y-71550000D02*
X83025000Y-72115685D01*
X84278984Y-79534670D02*
X84225000Y-79588654D01*
X83425000Y-74732056D02*
X83425000Y-78680686D01*
X83025000Y-74332056D02*
X83425000Y-74732056D01*
X84225000Y-81455000D02*
X85375000Y-82605000D01*
X81775000Y-71550000D02*
X82459315Y-71550000D01*
X83025000Y-72115685D02*
X83025000Y-74332056D01*
X84225000Y-79588654D02*
X84225000Y-81455000D01*
%TO.N,/GPIO21*%
X81250000Y-98300000D02*
X82125000Y-99175000D01*
X80625000Y-81975000D02*
X80625000Y-86100000D01*
X83375000Y-107725000D02*
X83175000Y-107925000D01*
X83375000Y-104473529D02*
X83375000Y-104550000D01*
X78025000Y-79725000D02*
X78150000Y-79725000D01*
X76475000Y-77700000D02*
X76475000Y-78175000D01*
X80400000Y-81975000D02*
X80625000Y-81975000D01*
X78150000Y-79725000D02*
X80400000Y-81975000D01*
X82125000Y-103223529D02*
X83375000Y-104473529D01*
X83375000Y-104550000D02*
X83375000Y-107725000D01*
X82125000Y-99175000D02*
X82125000Y-103223529D01*
X76475000Y-78175000D02*
X78025000Y-79725000D01*
X80625000Y-86100000D02*
X81250000Y-86725000D01*
X81250000Y-86725000D02*
X81250000Y-98300000D01*
%TO.N,/GPIO45*%
X84225000Y-70381346D02*
X84943654Y-71100000D01*
X83967968Y-68150000D02*
X84225000Y-68407032D01*
X85125000Y-72195000D02*
X85375000Y-72445000D01*
X81775000Y-68150000D02*
X83967968Y-68150000D01*
X84225000Y-68407032D02*
X84225000Y-70381346D01*
X85125000Y-71100000D02*
X85125000Y-72195000D01*
X84943654Y-71100000D02*
X85125000Y-71100000D01*
%TO.N,/GPIO37*%
X85375000Y-92765000D02*
X85375000Y-92475000D01*
X81725000Y-74900000D02*
X81775000Y-74950000D01*
X80450000Y-74900000D02*
X81725000Y-74900000D01*
X85375000Y-92475000D02*
X86125000Y-91725000D01*
%TO.N,/GPIO39*%
X86475000Y-86475000D02*
X86475000Y-86585000D01*
X80850000Y-73250000D02*
X80725000Y-73125000D01*
X86475000Y-86585000D02*
X85375000Y-87685000D01*
X81775000Y-73250000D02*
X80850000Y-73250000D01*
%TO.N,/GPIO35*%
X83317157Y-95787157D02*
X85375000Y-97845000D01*
X81775000Y-76650000D02*
X82375000Y-76650000D01*
X82625000Y-76900000D02*
X82625000Y-79590686D01*
X83317157Y-80282843D02*
X83317157Y-95787157D01*
X82625000Y-79590686D02*
X83317157Y-80282843D01*
X82375000Y-76650000D02*
X82625000Y-76900000D01*
%TO.N,/RXD*%
X83825000Y-69225000D02*
X83825000Y-70547032D01*
X83825000Y-70547032D02*
X84588984Y-71311016D01*
X81775000Y-69000000D02*
X83600000Y-69000000D01*
X84225000Y-71675000D02*
X84225000Y-73835000D01*
X84225000Y-73835000D02*
X85375000Y-74985000D01*
X84588984Y-71311016D02*
X84225000Y-71675000D01*
X83600000Y-69000000D02*
X83825000Y-69225000D01*
%TO.N,/TXD*%
X84274315Y-74450000D02*
X84225000Y-74499315D01*
X84225000Y-74499315D02*
X84225000Y-76375000D01*
X83825000Y-71509314D02*
X83825000Y-74000686D01*
X81775000Y-69850000D02*
X83375000Y-69850000D01*
X83425000Y-69800000D02*
X83425000Y-70712718D01*
X83375000Y-69850000D02*
X83425000Y-69800000D01*
X84023298Y-71311016D02*
X83825000Y-71509314D01*
X84225000Y-76375000D02*
X85375000Y-77525000D01*
X83825000Y-74000686D02*
X84274315Y-74450000D01*
X83425000Y-70712718D02*
X84023298Y-71311016D01*
%TO.N,/GPIO46*%
X85375000Y-68991346D02*
X85375000Y-69905000D01*
X83800000Y-65500000D02*
X83800000Y-67275000D01*
X83700000Y-65600000D02*
X83800000Y-65500000D01*
X84225000Y-67700000D02*
X84225000Y-67841346D01*
X83800000Y-67275000D02*
X84225000Y-67700000D01*
X84225000Y-67841346D02*
X85375000Y-68991346D01*
X81775000Y-65600000D02*
X83700000Y-65600000D01*
%TO.N,/GPIO40*%
X81975000Y-72400000D02*
X82625000Y-73050000D01*
X83825000Y-80225000D02*
X83825000Y-83595000D01*
X81775000Y-72400000D02*
X81975000Y-72400000D01*
X82625000Y-74750000D02*
X83025000Y-75150000D01*
X82625000Y-73050000D02*
X82625000Y-74750000D01*
X83025000Y-79425000D02*
X83825000Y-80225000D01*
X83025000Y-75150000D02*
X83025000Y-79425000D01*
X83825000Y-83595000D02*
X85375000Y-85145000D01*
%TO.N,/GPIO36*%
X81492112Y-75517112D02*
X81775000Y-75800000D01*
X80959094Y-75517112D02*
X81492112Y-75517112D01*
X85375000Y-94975000D02*
X86375000Y-93975000D01*
X85375000Y-95305000D02*
X85375000Y-94975000D01*
X85375000Y-95305000D02*
X85570000Y-95305000D01*
%TO.N,/GPIO42*%
X82846597Y-70700000D02*
X83457613Y-71311016D01*
X81775000Y-70700000D02*
X82846597Y-70700000D01*
X83425000Y-71343628D02*
X83425000Y-74166371D01*
X83457613Y-71311016D02*
X83425000Y-71343628D01*
X83825000Y-78515000D02*
X85375000Y-80065000D01*
X83425000Y-74166371D02*
X83825000Y-74566371D01*
X83825000Y-74566371D02*
X83825000Y-78515000D01*
%TO.N,/GPIO38*%
X80775000Y-74100000D02*
X81775000Y-74100000D01*
X85850000Y-90225000D02*
X86475000Y-89600000D01*
X79925691Y-73091696D02*
X79925691Y-73250691D01*
X79925691Y-73250691D02*
X80775000Y-74100000D01*
X85375000Y-90225000D02*
X85850000Y-90225000D01*
%TO.N,/GPIO26*%
X81025000Y-81350000D02*
X81025000Y-82700000D01*
X81650000Y-96475000D02*
X81650000Y-98132843D01*
X81500000Y-85150000D02*
X81500000Y-85400000D01*
X82717157Y-99200000D02*
X82717157Y-102967157D01*
X81650000Y-85550000D02*
X81650000Y-96475000D01*
X81650000Y-98132843D02*
X82717157Y-99200000D01*
X81025000Y-84675000D02*
X81500000Y-85150000D01*
X79125000Y-79850000D02*
X79525000Y-79850000D01*
X79525000Y-79850000D02*
X81025000Y-81350000D01*
X81500000Y-85400000D02*
X81650000Y-85550000D01*
X81025000Y-82700000D02*
X81025000Y-84675000D01*
X77325000Y-78050000D02*
X79125000Y-79850000D01*
X77325000Y-77700000D02*
X77325000Y-78050000D01*
%TO.N,/GPIO33*%
X79025000Y-77900000D02*
X80675000Y-79550000D01*
X81825000Y-83682843D02*
X82517157Y-84375000D01*
X83600000Y-97425000D02*
X83600000Y-101150000D01*
X82517157Y-84375000D02*
X82517157Y-96342157D01*
X82517157Y-96342157D02*
X83600000Y-97425000D01*
X81675000Y-79550000D02*
X81825000Y-79700000D01*
X83600000Y-101150000D02*
X85375000Y-102925000D01*
X81825000Y-79700000D02*
X81825000Y-83682843D01*
X79025000Y-77700000D02*
X79025000Y-77900000D01*
X80675000Y-79550000D02*
X81675000Y-79550000D01*
%TO.N,Net-(U2-FB)*%
X73415000Y-89500000D02*
X73415000Y-90548705D01*
X73325000Y-93725000D02*
X73850000Y-93725000D01*
X73950000Y-111825000D02*
X73900000Y-111875000D01*
X73900000Y-111875000D02*
X73575000Y-111550000D01*
X73850000Y-93725000D02*
X74310000Y-93265000D01*
X74600000Y-111825000D02*
X73950000Y-111825000D01*
X73415000Y-90548705D02*
X73408871Y-90554834D01*
%TD*%
M02*
