%TF.GenerationSoftware,KiCad,Pcbnew,8.0.3*%
%TF.CreationDate,2024-10-04T20:59:14+05:30*%
%TF.ProjectId,TP4056,54503430-3536-42e6-9b69-6361645f7063,rev?*%
%TF.SameCoordinates,Original*%
%TF.FileFunction,Legend,Top*%
%TF.FilePolarity,Positive*%
%FSLAX46Y46*%
G04 Gerber Fmt 4.6, Leading zero omitted, Abs format (unit mm)*
G04 Created by KiCad (PCBNEW 8.0.3) date 2024-10-04 20:59:14*
%MOMM*%
%LPD*%
G01*
G04 APERTURE LIST*
%ADD10C,0.150000*%
%ADD11C,0.120000*%
G04 APERTURE END LIST*
D10*
X80624580Y-87141666D02*
X80672200Y-87189285D01*
X80672200Y-87189285D02*
X80719819Y-87332142D01*
X80719819Y-87332142D02*
X80719819Y-87427380D01*
X80719819Y-87427380D02*
X80672200Y-87570237D01*
X80672200Y-87570237D02*
X80576961Y-87665475D01*
X80576961Y-87665475D02*
X80481723Y-87713094D01*
X80481723Y-87713094D02*
X80291247Y-87760713D01*
X80291247Y-87760713D02*
X80148390Y-87760713D01*
X80148390Y-87760713D02*
X79957914Y-87713094D01*
X79957914Y-87713094D02*
X79862676Y-87665475D01*
X79862676Y-87665475D02*
X79767438Y-87570237D01*
X79767438Y-87570237D02*
X79719819Y-87427380D01*
X79719819Y-87427380D02*
X79719819Y-87332142D01*
X79719819Y-87332142D02*
X79767438Y-87189285D01*
X79767438Y-87189285D02*
X79815057Y-87141666D01*
X80719819Y-86189285D02*
X80719819Y-86760713D01*
X80719819Y-86474999D02*
X79719819Y-86474999D01*
X79719819Y-86474999D02*
X79862676Y-86570237D01*
X79862676Y-86570237D02*
X79957914Y-86665475D01*
X79957914Y-86665475D02*
X80005533Y-86760713D01*
X77533333Y-83374819D02*
X77200000Y-82898628D01*
X76961905Y-83374819D02*
X76961905Y-82374819D01*
X76961905Y-82374819D02*
X77342857Y-82374819D01*
X77342857Y-82374819D02*
X77438095Y-82422438D01*
X77438095Y-82422438D02*
X77485714Y-82470057D01*
X77485714Y-82470057D02*
X77533333Y-82565295D01*
X77533333Y-82565295D02*
X77533333Y-82708152D01*
X77533333Y-82708152D02*
X77485714Y-82803390D01*
X77485714Y-82803390D02*
X77438095Y-82851009D01*
X77438095Y-82851009D02*
X77342857Y-82898628D01*
X77342857Y-82898628D02*
X76961905Y-82898628D01*
X77866667Y-82374819D02*
X78485714Y-82374819D01*
X78485714Y-82374819D02*
X78152381Y-82755771D01*
X78152381Y-82755771D02*
X78295238Y-82755771D01*
X78295238Y-82755771D02*
X78390476Y-82803390D01*
X78390476Y-82803390D02*
X78438095Y-82851009D01*
X78438095Y-82851009D02*
X78485714Y-82946247D01*
X78485714Y-82946247D02*
X78485714Y-83184342D01*
X78485714Y-83184342D02*
X78438095Y-83279580D01*
X78438095Y-83279580D02*
X78390476Y-83327200D01*
X78390476Y-83327200D02*
X78295238Y-83374819D01*
X78295238Y-83374819D02*
X78009524Y-83374819D01*
X78009524Y-83374819D02*
X77914286Y-83327200D01*
X77914286Y-83327200D02*
X77866667Y-83279580D01*
X71349819Y-92041666D02*
X70873628Y-92374999D01*
X71349819Y-92613094D02*
X70349819Y-92613094D01*
X70349819Y-92613094D02*
X70349819Y-92232142D01*
X70349819Y-92232142D02*
X70397438Y-92136904D01*
X70397438Y-92136904D02*
X70445057Y-92089285D01*
X70445057Y-92089285D02*
X70540295Y-92041666D01*
X70540295Y-92041666D02*
X70683152Y-92041666D01*
X70683152Y-92041666D02*
X70778390Y-92089285D01*
X70778390Y-92089285D02*
X70826009Y-92136904D01*
X70826009Y-92136904D02*
X70873628Y-92232142D01*
X70873628Y-92232142D02*
X70873628Y-92613094D01*
X70349819Y-91136904D02*
X70349819Y-91613094D01*
X70349819Y-91613094D02*
X70826009Y-91660713D01*
X70826009Y-91660713D02*
X70778390Y-91613094D01*
X70778390Y-91613094D02*
X70730771Y-91517856D01*
X70730771Y-91517856D02*
X70730771Y-91279761D01*
X70730771Y-91279761D02*
X70778390Y-91184523D01*
X70778390Y-91184523D02*
X70826009Y-91136904D01*
X70826009Y-91136904D02*
X70921247Y-91089285D01*
X70921247Y-91089285D02*
X71159342Y-91089285D01*
X71159342Y-91089285D02*
X71254580Y-91136904D01*
X71254580Y-91136904D02*
X71302200Y-91184523D01*
X71302200Y-91184523D02*
X71349819Y-91279761D01*
X71349819Y-91279761D02*
X71349819Y-91517856D01*
X71349819Y-91517856D02*
X71302200Y-91613094D01*
X71302200Y-91613094D02*
X71254580Y-91660713D01*
X70490595Y-109279819D02*
X70490595Y-110089342D01*
X70490595Y-110089342D02*
X70538214Y-110184580D01*
X70538214Y-110184580D02*
X70585833Y-110232200D01*
X70585833Y-110232200D02*
X70681071Y-110279819D01*
X70681071Y-110279819D02*
X70871547Y-110279819D01*
X70871547Y-110279819D02*
X70966785Y-110232200D01*
X70966785Y-110232200D02*
X71014404Y-110184580D01*
X71014404Y-110184580D02*
X71062023Y-110089342D01*
X71062023Y-110089342D02*
X71062023Y-109279819D01*
X71966785Y-109613152D02*
X71966785Y-110279819D01*
X71728690Y-109232200D02*
X71490595Y-109946485D01*
X71490595Y-109946485D02*
X72109642Y-109946485D01*
X78808333Y-90299819D02*
X78475000Y-89823628D01*
X78236905Y-90299819D02*
X78236905Y-89299819D01*
X78236905Y-89299819D02*
X78617857Y-89299819D01*
X78617857Y-89299819D02*
X78713095Y-89347438D01*
X78713095Y-89347438D02*
X78760714Y-89395057D01*
X78760714Y-89395057D02*
X78808333Y-89490295D01*
X78808333Y-89490295D02*
X78808333Y-89633152D01*
X78808333Y-89633152D02*
X78760714Y-89728390D01*
X78760714Y-89728390D02*
X78713095Y-89776009D01*
X78713095Y-89776009D02*
X78617857Y-89823628D01*
X78617857Y-89823628D02*
X78236905Y-89823628D01*
X79665476Y-89633152D02*
X79665476Y-90299819D01*
X79427381Y-89252200D02*
X79189286Y-89966485D01*
X79189286Y-89966485D02*
X79808333Y-89966485D01*
X69558333Y-94809819D02*
X69225000Y-94333628D01*
X68986905Y-94809819D02*
X68986905Y-93809819D01*
X68986905Y-93809819D02*
X69367857Y-93809819D01*
X69367857Y-93809819D02*
X69463095Y-93857438D01*
X69463095Y-93857438D02*
X69510714Y-93905057D01*
X69510714Y-93905057D02*
X69558333Y-94000295D01*
X69558333Y-94000295D02*
X69558333Y-94143152D01*
X69558333Y-94143152D02*
X69510714Y-94238390D01*
X69510714Y-94238390D02*
X69463095Y-94286009D01*
X69463095Y-94286009D02*
X69367857Y-94333628D01*
X69367857Y-94333628D02*
X68986905Y-94333628D01*
X69939286Y-93905057D02*
X69986905Y-93857438D01*
X69986905Y-93857438D02*
X70082143Y-93809819D01*
X70082143Y-93809819D02*
X70320238Y-93809819D01*
X70320238Y-93809819D02*
X70415476Y-93857438D01*
X70415476Y-93857438D02*
X70463095Y-93905057D01*
X70463095Y-93905057D02*
X70510714Y-94000295D01*
X70510714Y-94000295D02*
X70510714Y-94095533D01*
X70510714Y-94095533D02*
X70463095Y-94238390D01*
X70463095Y-94238390D02*
X69891667Y-94809819D01*
X69891667Y-94809819D02*
X70510714Y-94809819D01*
X69516667Y-104507200D02*
X69659524Y-104554819D01*
X69659524Y-104554819D02*
X69897619Y-104554819D01*
X69897619Y-104554819D02*
X69992857Y-104507200D01*
X69992857Y-104507200D02*
X70040476Y-104459580D01*
X70040476Y-104459580D02*
X70088095Y-104364342D01*
X70088095Y-104364342D02*
X70088095Y-104269104D01*
X70088095Y-104269104D02*
X70040476Y-104173866D01*
X70040476Y-104173866D02*
X69992857Y-104126247D01*
X69992857Y-104126247D02*
X69897619Y-104078628D01*
X69897619Y-104078628D02*
X69707143Y-104031009D01*
X69707143Y-104031009D02*
X69611905Y-103983390D01*
X69611905Y-103983390D02*
X69564286Y-103935771D01*
X69564286Y-103935771D02*
X69516667Y-103840533D01*
X69516667Y-103840533D02*
X69516667Y-103745295D01*
X69516667Y-103745295D02*
X69564286Y-103650057D01*
X69564286Y-103650057D02*
X69611905Y-103602438D01*
X69611905Y-103602438D02*
X69707143Y-103554819D01*
X69707143Y-103554819D02*
X69945238Y-103554819D01*
X69945238Y-103554819D02*
X70088095Y-103602438D01*
X70421429Y-103554819D02*
X70659524Y-104554819D01*
X70659524Y-104554819D02*
X70850000Y-103840533D01*
X70850000Y-103840533D02*
X71040476Y-104554819D01*
X71040476Y-104554819D02*
X71278572Y-103554819D01*
X72183333Y-104554819D02*
X71611905Y-104554819D01*
X71897619Y-104554819D02*
X71897619Y-103554819D01*
X71897619Y-103554819D02*
X71802381Y-103697676D01*
X71802381Y-103697676D02*
X71707143Y-103792914D01*
X71707143Y-103792914D02*
X71611905Y-103840533D01*
X73761905Y-94754819D02*
X73761905Y-93754819D01*
X73761905Y-93754819D02*
X74000000Y-93754819D01*
X74000000Y-93754819D02*
X74142857Y-93802438D01*
X74142857Y-93802438D02*
X74238095Y-93897676D01*
X74238095Y-93897676D02*
X74285714Y-93992914D01*
X74285714Y-93992914D02*
X74333333Y-94183390D01*
X74333333Y-94183390D02*
X74333333Y-94326247D01*
X74333333Y-94326247D02*
X74285714Y-94516723D01*
X74285714Y-94516723D02*
X74238095Y-94611961D01*
X74238095Y-94611961D02*
X74142857Y-94707200D01*
X74142857Y-94707200D02*
X74000000Y-94754819D01*
X74000000Y-94754819D02*
X73761905Y-94754819D01*
X75285714Y-94754819D02*
X74714286Y-94754819D01*
X75000000Y-94754819D02*
X75000000Y-93754819D01*
X75000000Y-93754819D02*
X74904762Y-93897676D01*
X74904762Y-93897676D02*
X74809524Y-93992914D01*
X74809524Y-93992914D02*
X74714286Y-94040533D01*
X70635714Y-96654819D02*
X70064286Y-96654819D01*
X70350000Y-96654819D02*
X70350000Y-95654819D01*
X70350000Y-95654819D02*
X70254762Y-95797676D01*
X70254762Y-95797676D02*
X70159524Y-95892914D01*
X70159524Y-95892914D02*
X70064286Y-95940533D01*
X74968333Y-92289819D02*
X74635000Y-91813628D01*
X74396905Y-92289819D02*
X74396905Y-91289819D01*
X74396905Y-91289819D02*
X74777857Y-91289819D01*
X74777857Y-91289819D02*
X74873095Y-91337438D01*
X74873095Y-91337438D02*
X74920714Y-91385057D01*
X74920714Y-91385057D02*
X74968333Y-91480295D01*
X74968333Y-91480295D02*
X74968333Y-91623152D01*
X74968333Y-91623152D02*
X74920714Y-91718390D01*
X74920714Y-91718390D02*
X74873095Y-91766009D01*
X74873095Y-91766009D02*
X74777857Y-91813628D01*
X74777857Y-91813628D02*
X74396905Y-91813628D01*
X75301667Y-91289819D02*
X75968333Y-91289819D01*
X75968333Y-91289819D02*
X75539762Y-92289819D01*
X70024405Y-101799819D02*
X70024405Y-100799819D01*
X70024405Y-100799819D02*
X70262500Y-100799819D01*
X70262500Y-100799819D02*
X70405357Y-100847438D01*
X70405357Y-100847438D02*
X70500595Y-100942676D01*
X70500595Y-100942676D02*
X70548214Y-101037914D01*
X70548214Y-101037914D02*
X70595833Y-101228390D01*
X70595833Y-101228390D02*
X70595833Y-101371247D01*
X70595833Y-101371247D02*
X70548214Y-101561723D01*
X70548214Y-101561723D02*
X70500595Y-101656961D01*
X70500595Y-101656961D02*
X70405357Y-101752200D01*
X70405357Y-101752200D02*
X70262500Y-101799819D01*
X70262500Y-101799819D02*
X70024405Y-101799819D01*
X70976786Y-100895057D02*
X71024405Y-100847438D01*
X71024405Y-100847438D02*
X71119643Y-100799819D01*
X71119643Y-100799819D02*
X71357738Y-100799819D01*
X71357738Y-100799819D02*
X71452976Y-100847438D01*
X71452976Y-100847438D02*
X71500595Y-100895057D01*
X71500595Y-100895057D02*
X71548214Y-100990295D01*
X71548214Y-100990295D02*
X71548214Y-101085533D01*
X71548214Y-101085533D02*
X71500595Y-101228390D01*
X71500595Y-101228390D02*
X70929167Y-101799819D01*
X70929167Y-101799819D02*
X71548214Y-101799819D01*
X74798333Y-90204580D02*
X74750714Y-90252200D01*
X74750714Y-90252200D02*
X74607857Y-90299819D01*
X74607857Y-90299819D02*
X74512619Y-90299819D01*
X74512619Y-90299819D02*
X74369762Y-90252200D01*
X74369762Y-90252200D02*
X74274524Y-90156961D01*
X74274524Y-90156961D02*
X74226905Y-90061723D01*
X74226905Y-90061723D02*
X74179286Y-89871247D01*
X74179286Y-89871247D02*
X74179286Y-89728390D01*
X74179286Y-89728390D02*
X74226905Y-89537914D01*
X74226905Y-89537914D02*
X74274524Y-89442676D01*
X74274524Y-89442676D02*
X74369762Y-89347438D01*
X74369762Y-89347438D02*
X74512619Y-89299819D01*
X74512619Y-89299819D02*
X74607857Y-89299819D01*
X74607857Y-89299819D02*
X74750714Y-89347438D01*
X74750714Y-89347438D02*
X74798333Y-89395057D01*
X75703095Y-89299819D02*
X75226905Y-89299819D01*
X75226905Y-89299819D02*
X75179286Y-89776009D01*
X75179286Y-89776009D02*
X75226905Y-89728390D01*
X75226905Y-89728390D02*
X75322143Y-89680771D01*
X75322143Y-89680771D02*
X75560238Y-89680771D01*
X75560238Y-89680771D02*
X75655476Y-89728390D01*
X75655476Y-89728390D02*
X75703095Y-89776009D01*
X75703095Y-89776009D02*
X75750714Y-89871247D01*
X75750714Y-89871247D02*
X75750714Y-90109342D01*
X75750714Y-90109342D02*
X75703095Y-90204580D01*
X75703095Y-90204580D02*
X75655476Y-90252200D01*
X75655476Y-90252200D02*
X75560238Y-90299819D01*
X75560238Y-90299819D02*
X75322143Y-90299819D01*
X75322143Y-90299819D02*
X75226905Y-90252200D01*
X75226905Y-90252200D02*
X75179286Y-90204580D01*
X69508333Y-93184819D02*
X69175000Y-92708628D01*
X68936905Y-93184819D02*
X68936905Y-92184819D01*
X68936905Y-92184819D02*
X69317857Y-92184819D01*
X69317857Y-92184819D02*
X69413095Y-92232438D01*
X69413095Y-92232438D02*
X69460714Y-92280057D01*
X69460714Y-92280057D02*
X69508333Y-92375295D01*
X69508333Y-92375295D02*
X69508333Y-92518152D01*
X69508333Y-92518152D02*
X69460714Y-92613390D01*
X69460714Y-92613390D02*
X69413095Y-92661009D01*
X69413095Y-92661009D02*
X69317857Y-92708628D01*
X69317857Y-92708628D02*
X68936905Y-92708628D01*
X70460714Y-93184819D02*
X69889286Y-93184819D01*
X70175000Y-93184819D02*
X70175000Y-92184819D01*
X70175000Y-92184819D02*
X70079762Y-92327676D01*
X70079762Y-92327676D02*
X69984524Y-92422914D01*
X69984524Y-92422914D02*
X69889286Y-92470533D01*
X85041666Y-61949819D02*
X85041666Y-62664104D01*
X85041666Y-62664104D02*
X84994047Y-62806961D01*
X84994047Y-62806961D02*
X84898809Y-62902200D01*
X84898809Y-62902200D02*
X84755952Y-62949819D01*
X84755952Y-62949819D02*
X84660714Y-62949819D01*
X85422619Y-61949819D02*
X86041666Y-61949819D01*
X86041666Y-61949819D02*
X85708333Y-62330771D01*
X85708333Y-62330771D02*
X85851190Y-62330771D01*
X85851190Y-62330771D02*
X85946428Y-62378390D01*
X85946428Y-62378390D02*
X85994047Y-62426009D01*
X85994047Y-62426009D02*
X86041666Y-62521247D01*
X86041666Y-62521247D02*
X86041666Y-62759342D01*
X86041666Y-62759342D02*
X85994047Y-62854580D01*
X85994047Y-62854580D02*
X85946428Y-62902200D01*
X85946428Y-62902200D02*
X85851190Y-62949819D01*
X85851190Y-62949819D02*
X85565476Y-62949819D01*
X85565476Y-62949819D02*
X85470238Y-62902200D01*
X85470238Y-62902200D02*
X85422619Y-62854580D01*
X77758333Y-83839580D02*
X77710714Y-83887200D01*
X77710714Y-83887200D02*
X77567857Y-83934819D01*
X77567857Y-83934819D02*
X77472619Y-83934819D01*
X77472619Y-83934819D02*
X77329762Y-83887200D01*
X77329762Y-83887200D02*
X77234524Y-83791961D01*
X77234524Y-83791961D02*
X77186905Y-83696723D01*
X77186905Y-83696723D02*
X77139286Y-83506247D01*
X77139286Y-83506247D02*
X77139286Y-83363390D01*
X77139286Y-83363390D02*
X77186905Y-83172914D01*
X77186905Y-83172914D02*
X77234524Y-83077676D01*
X77234524Y-83077676D02*
X77329762Y-82982438D01*
X77329762Y-82982438D02*
X77472619Y-82934819D01*
X77472619Y-82934819D02*
X77567857Y-82934819D01*
X77567857Y-82934819D02*
X77710714Y-82982438D01*
X77710714Y-82982438D02*
X77758333Y-83030057D01*
X78091667Y-82934819D02*
X78710714Y-82934819D01*
X78710714Y-82934819D02*
X78377381Y-83315771D01*
X78377381Y-83315771D02*
X78520238Y-83315771D01*
X78520238Y-83315771D02*
X78615476Y-83363390D01*
X78615476Y-83363390D02*
X78663095Y-83411009D01*
X78663095Y-83411009D02*
X78710714Y-83506247D01*
X78710714Y-83506247D02*
X78710714Y-83744342D01*
X78710714Y-83744342D02*
X78663095Y-83839580D01*
X78663095Y-83839580D02*
X78615476Y-83887200D01*
X78615476Y-83887200D02*
X78520238Y-83934819D01*
X78520238Y-83934819D02*
X78234524Y-83934819D01*
X78234524Y-83934819D02*
X78139286Y-83887200D01*
X78139286Y-83887200D02*
X78091667Y-83839580D01*
X79158333Y-114054580D02*
X79110714Y-114102200D01*
X79110714Y-114102200D02*
X78967857Y-114149819D01*
X78967857Y-114149819D02*
X78872619Y-114149819D01*
X78872619Y-114149819D02*
X78729762Y-114102200D01*
X78729762Y-114102200D02*
X78634524Y-114006961D01*
X78634524Y-114006961D02*
X78586905Y-113911723D01*
X78586905Y-113911723D02*
X78539286Y-113721247D01*
X78539286Y-113721247D02*
X78539286Y-113578390D01*
X78539286Y-113578390D02*
X78586905Y-113387914D01*
X78586905Y-113387914D02*
X78634524Y-113292676D01*
X78634524Y-113292676D02*
X78729762Y-113197438D01*
X78729762Y-113197438D02*
X78872619Y-113149819D01*
X78872619Y-113149819D02*
X78967857Y-113149819D01*
X78967857Y-113149819D02*
X79110714Y-113197438D01*
X79110714Y-113197438D02*
X79158333Y-113245057D01*
X80015476Y-113149819D02*
X79825000Y-113149819D01*
X79825000Y-113149819D02*
X79729762Y-113197438D01*
X79729762Y-113197438D02*
X79682143Y-113245057D01*
X79682143Y-113245057D02*
X79586905Y-113387914D01*
X79586905Y-113387914D02*
X79539286Y-113578390D01*
X79539286Y-113578390D02*
X79539286Y-113959342D01*
X79539286Y-113959342D02*
X79586905Y-114054580D01*
X79586905Y-114054580D02*
X79634524Y-114102200D01*
X79634524Y-114102200D02*
X79729762Y-114149819D01*
X79729762Y-114149819D02*
X79920238Y-114149819D01*
X79920238Y-114149819D02*
X80015476Y-114102200D01*
X80015476Y-114102200D02*
X80063095Y-114054580D01*
X80063095Y-114054580D02*
X80110714Y-113959342D01*
X80110714Y-113959342D02*
X80110714Y-113721247D01*
X80110714Y-113721247D02*
X80063095Y-113626009D01*
X80063095Y-113626009D02*
X80015476Y-113578390D01*
X80015476Y-113578390D02*
X79920238Y-113530771D01*
X79920238Y-113530771D02*
X79729762Y-113530771D01*
X79729762Y-113530771D02*
X79634524Y-113578390D01*
X79634524Y-113578390D02*
X79586905Y-113626009D01*
X79586905Y-113626009D02*
X79539286Y-113721247D01*
X68063095Y-79454819D02*
X68063095Y-80264342D01*
X68063095Y-80264342D02*
X68110714Y-80359580D01*
X68110714Y-80359580D02*
X68158333Y-80407200D01*
X68158333Y-80407200D02*
X68253571Y-80454819D01*
X68253571Y-80454819D02*
X68444047Y-80454819D01*
X68444047Y-80454819D02*
X68539285Y-80407200D01*
X68539285Y-80407200D02*
X68586904Y-80359580D01*
X68586904Y-80359580D02*
X68634523Y-80264342D01*
X68634523Y-80264342D02*
X68634523Y-79454819D01*
X69015476Y-79454819D02*
X69634523Y-79454819D01*
X69634523Y-79454819D02*
X69301190Y-79835771D01*
X69301190Y-79835771D02*
X69444047Y-79835771D01*
X69444047Y-79835771D02*
X69539285Y-79883390D01*
X69539285Y-79883390D02*
X69586904Y-79931009D01*
X69586904Y-79931009D02*
X69634523Y-80026247D01*
X69634523Y-80026247D02*
X69634523Y-80264342D01*
X69634523Y-80264342D02*
X69586904Y-80359580D01*
X69586904Y-80359580D02*
X69539285Y-80407200D01*
X69539285Y-80407200D02*
X69444047Y-80454819D01*
X69444047Y-80454819D02*
X69158333Y-80454819D01*
X69158333Y-80454819D02*
X69063095Y-80407200D01*
X69063095Y-80407200D02*
X69015476Y-80359580D01*
X74073333Y-91384819D02*
X73740000Y-90908628D01*
X73501905Y-91384819D02*
X73501905Y-90384819D01*
X73501905Y-90384819D02*
X73882857Y-90384819D01*
X73882857Y-90384819D02*
X73978095Y-90432438D01*
X73978095Y-90432438D02*
X74025714Y-90480057D01*
X74025714Y-90480057D02*
X74073333Y-90575295D01*
X74073333Y-90575295D02*
X74073333Y-90718152D01*
X74073333Y-90718152D02*
X74025714Y-90813390D01*
X74025714Y-90813390D02*
X73978095Y-90861009D01*
X73978095Y-90861009D02*
X73882857Y-90908628D01*
X73882857Y-90908628D02*
X73501905Y-90908628D01*
X74930476Y-90384819D02*
X74740000Y-90384819D01*
X74740000Y-90384819D02*
X74644762Y-90432438D01*
X74644762Y-90432438D02*
X74597143Y-90480057D01*
X74597143Y-90480057D02*
X74501905Y-90622914D01*
X74501905Y-90622914D02*
X74454286Y-90813390D01*
X74454286Y-90813390D02*
X74454286Y-91194342D01*
X74454286Y-91194342D02*
X74501905Y-91289580D01*
X74501905Y-91289580D02*
X74549524Y-91337200D01*
X74549524Y-91337200D02*
X74644762Y-91384819D01*
X74644762Y-91384819D02*
X74835238Y-91384819D01*
X74835238Y-91384819D02*
X74930476Y-91337200D01*
X74930476Y-91337200D02*
X74978095Y-91289580D01*
X74978095Y-91289580D02*
X75025714Y-91194342D01*
X75025714Y-91194342D02*
X75025714Y-90956247D01*
X75025714Y-90956247D02*
X74978095Y-90861009D01*
X74978095Y-90861009D02*
X74930476Y-90813390D01*
X74930476Y-90813390D02*
X74835238Y-90765771D01*
X74835238Y-90765771D02*
X74644762Y-90765771D01*
X74644762Y-90765771D02*
X74549524Y-90813390D01*
X74549524Y-90813390D02*
X74501905Y-90861009D01*
X74501905Y-90861009D02*
X74454286Y-90956247D01*
X74491666Y-115569819D02*
X74491666Y-116284104D01*
X74491666Y-116284104D02*
X74444047Y-116426961D01*
X74444047Y-116426961D02*
X74348809Y-116522200D01*
X74348809Y-116522200D02*
X74205952Y-116569819D01*
X74205952Y-116569819D02*
X74110714Y-116569819D01*
X75491666Y-116569819D02*
X74920238Y-116569819D01*
X75205952Y-116569819D02*
X75205952Y-115569819D01*
X75205952Y-115569819D02*
X75110714Y-115712676D01*
X75110714Y-115712676D02*
X75015476Y-115807914D01*
X75015476Y-115807914D02*
X74920238Y-115855533D01*
X74725595Y-109329819D02*
X74725595Y-110139342D01*
X74725595Y-110139342D02*
X74773214Y-110234580D01*
X74773214Y-110234580D02*
X74820833Y-110282200D01*
X74820833Y-110282200D02*
X74916071Y-110329819D01*
X74916071Y-110329819D02*
X75106547Y-110329819D01*
X75106547Y-110329819D02*
X75201785Y-110282200D01*
X75201785Y-110282200D02*
X75249404Y-110234580D01*
X75249404Y-110234580D02*
X75297023Y-110139342D01*
X75297023Y-110139342D02*
X75297023Y-109329819D01*
X75725595Y-109425057D02*
X75773214Y-109377438D01*
X75773214Y-109377438D02*
X75868452Y-109329819D01*
X75868452Y-109329819D02*
X76106547Y-109329819D01*
X76106547Y-109329819D02*
X76201785Y-109377438D01*
X76201785Y-109377438D02*
X76249404Y-109425057D01*
X76249404Y-109425057D02*
X76297023Y-109520295D01*
X76297023Y-109520295D02*
X76297023Y-109615533D01*
X76297023Y-109615533D02*
X76249404Y-109758390D01*
X76249404Y-109758390D02*
X75677976Y-110329819D01*
X75677976Y-110329819D02*
X76297023Y-110329819D01*
X63441666Y-61799819D02*
X63441666Y-62514104D01*
X63441666Y-62514104D02*
X63394047Y-62656961D01*
X63394047Y-62656961D02*
X63298809Y-62752200D01*
X63298809Y-62752200D02*
X63155952Y-62799819D01*
X63155952Y-62799819D02*
X63060714Y-62799819D01*
X63870238Y-61895057D02*
X63917857Y-61847438D01*
X63917857Y-61847438D02*
X64013095Y-61799819D01*
X64013095Y-61799819D02*
X64251190Y-61799819D01*
X64251190Y-61799819D02*
X64346428Y-61847438D01*
X64346428Y-61847438D02*
X64394047Y-61895057D01*
X64394047Y-61895057D02*
X64441666Y-61990295D01*
X64441666Y-61990295D02*
X64441666Y-62085533D01*
X64441666Y-62085533D02*
X64394047Y-62228390D01*
X64394047Y-62228390D02*
X63822619Y-62799819D01*
X63822619Y-62799819D02*
X64441666Y-62799819D01*
X78083333Y-91289580D02*
X78035714Y-91337200D01*
X78035714Y-91337200D02*
X77892857Y-91384819D01*
X77892857Y-91384819D02*
X77797619Y-91384819D01*
X77797619Y-91384819D02*
X77654762Y-91337200D01*
X77654762Y-91337200D02*
X77559524Y-91241961D01*
X77559524Y-91241961D02*
X77511905Y-91146723D01*
X77511905Y-91146723D02*
X77464286Y-90956247D01*
X77464286Y-90956247D02*
X77464286Y-90813390D01*
X77464286Y-90813390D02*
X77511905Y-90622914D01*
X77511905Y-90622914D02*
X77559524Y-90527676D01*
X77559524Y-90527676D02*
X77654762Y-90432438D01*
X77654762Y-90432438D02*
X77797619Y-90384819D01*
X77797619Y-90384819D02*
X77892857Y-90384819D01*
X77892857Y-90384819D02*
X78035714Y-90432438D01*
X78035714Y-90432438D02*
X78083333Y-90480057D01*
X78416667Y-90384819D02*
X79083333Y-90384819D01*
X79083333Y-90384819D02*
X78654762Y-91384819D01*
X78833333Y-92174819D02*
X78500000Y-91698628D01*
X78261905Y-92174819D02*
X78261905Y-91174819D01*
X78261905Y-91174819D02*
X78642857Y-91174819D01*
X78642857Y-91174819D02*
X78738095Y-91222438D01*
X78738095Y-91222438D02*
X78785714Y-91270057D01*
X78785714Y-91270057D02*
X78833333Y-91365295D01*
X78833333Y-91365295D02*
X78833333Y-91508152D01*
X78833333Y-91508152D02*
X78785714Y-91603390D01*
X78785714Y-91603390D02*
X78738095Y-91651009D01*
X78738095Y-91651009D02*
X78642857Y-91698628D01*
X78642857Y-91698628D02*
X78261905Y-91698628D01*
X79404762Y-91603390D02*
X79309524Y-91555771D01*
X79309524Y-91555771D02*
X79261905Y-91508152D01*
X79261905Y-91508152D02*
X79214286Y-91412914D01*
X79214286Y-91412914D02*
X79214286Y-91365295D01*
X79214286Y-91365295D02*
X79261905Y-91270057D01*
X79261905Y-91270057D02*
X79309524Y-91222438D01*
X79309524Y-91222438D02*
X79404762Y-91174819D01*
X79404762Y-91174819D02*
X79595238Y-91174819D01*
X79595238Y-91174819D02*
X79690476Y-91222438D01*
X79690476Y-91222438D02*
X79738095Y-91270057D01*
X79738095Y-91270057D02*
X79785714Y-91365295D01*
X79785714Y-91365295D02*
X79785714Y-91412914D01*
X79785714Y-91412914D02*
X79738095Y-91508152D01*
X79738095Y-91508152D02*
X79690476Y-91555771D01*
X79690476Y-91555771D02*
X79595238Y-91603390D01*
X79595238Y-91603390D02*
X79404762Y-91603390D01*
X79404762Y-91603390D02*
X79309524Y-91651009D01*
X79309524Y-91651009D02*
X79261905Y-91698628D01*
X79261905Y-91698628D02*
X79214286Y-91793866D01*
X79214286Y-91793866D02*
X79214286Y-91984342D01*
X79214286Y-91984342D02*
X79261905Y-92079580D01*
X79261905Y-92079580D02*
X79309524Y-92127200D01*
X79309524Y-92127200D02*
X79404762Y-92174819D01*
X79404762Y-92174819D02*
X79595238Y-92174819D01*
X79595238Y-92174819D02*
X79690476Y-92127200D01*
X79690476Y-92127200D02*
X79738095Y-92079580D01*
X79738095Y-92079580D02*
X79785714Y-91984342D01*
X79785714Y-91984342D02*
X79785714Y-91793866D01*
X79785714Y-91793866D02*
X79738095Y-91698628D01*
X79738095Y-91698628D02*
X79690476Y-91651009D01*
X79690476Y-91651009D02*
X79595238Y-91603390D01*
X76566667Y-104407200D02*
X76709524Y-104454819D01*
X76709524Y-104454819D02*
X76947619Y-104454819D01*
X76947619Y-104454819D02*
X77042857Y-104407200D01*
X77042857Y-104407200D02*
X77090476Y-104359580D01*
X77090476Y-104359580D02*
X77138095Y-104264342D01*
X77138095Y-104264342D02*
X77138095Y-104169104D01*
X77138095Y-104169104D02*
X77090476Y-104073866D01*
X77090476Y-104073866D02*
X77042857Y-104026247D01*
X77042857Y-104026247D02*
X76947619Y-103978628D01*
X76947619Y-103978628D02*
X76757143Y-103931009D01*
X76757143Y-103931009D02*
X76661905Y-103883390D01*
X76661905Y-103883390D02*
X76614286Y-103835771D01*
X76614286Y-103835771D02*
X76566667Y-103740533D01*
X76566667Y-103740533D02*
X76566667Y-103645295D01*
X76566667Y-103645295D02*
X76614286Y-103550057D01*
X76614286Y-103550057D02*
X76661905Y-103502438D01*
X76661905Y-103502438D02*
X76757143Y-103454819D01*
X76757143Y-103454819D02*
X76995238Y-103454819D01*
X76995238Y-103454819D02*
X77138095Y-103502438D01*
X77471429Y-103454819D02*
X77709524Y-104454819D01*
X77709524Y-104454819D02*
X77900000Y-103740533D01*
X77900000Y-103740533D02*
X78090476Y-104454819D01*
X78090476Y-104454819D02*
X78328572Y-103454819D01*
X78661905Y-103550057D02*
X78709524Y-103502438D01*
X78709524Y-103502438D02*
X78804762Y-103454819D01*
X78804762Y-103454819D02*
X79042857Y-103454819D01*
X79042857Y-103454819D02*
X79138095Y-103502438D01*
X79138095Y-103502438D02*
X79185714Y-103550057D01*
X79185714Y-103550057D02*
X79233333Y-103645295D01*
X79233333Y-103645295D02*
X79233333Y-103740533D01*
X79233333Y-103740533D02*
X79185714Y-103883390D01*
X79185714Y-103883390D02*
X78614286Y-104454819D01*
X78614286Y-104454819D02*
X79233333Y-104454819D01*
X78114580Y-87141666D02*
X78162200Y-87189285D01*
X78162200Y-87189285D02*
X78209819Y-87332142D01*
X78209819Y-87332142D02*
X78209819Y-87427380D01*
X78209819Y-87427380D02*
X78162200Y-87570237D01*
X78162200Y-87570237D02*
X78066961Y-87665475D01*
X78066961Y-87665475D02*
X77971723Y-87713094D01*
X77971723Y-87713094D02*
X77781247Y-87760713D01*
X77781247Y-87760713D02*
X77638390Y-87760713D01*
X77638390Y-87760713D02*
X77447914Y-87713094D01*
X77447914Y-87713094D02*
X77352676Y-87665475D01*
X77352676Y-87665475D02*
X77257438Y-87570237D01*
X77257438Y-87570237D02*
X77209819Y-87427380D01*
X77209819Y-87427380D02*
X77209819Y-87332142D01*
X77209819Y-87332142D02*
X77257438Y-87189285D01*
X77257438Y-87189285D02*
X77305057Y-87141666D01*
X77305057Y-86760713D02*
X77257438Y-86713094D01*
X77257438Y-86713094D02*
X77209819Y-86617856D01*
X77209819Y-86617856D02*
X77209819Y-86379761D01*
X77209819Y-86379761D02*
X77257438Y-86284523D01*
X77257438Y-86284523D02*
X77305057Y-86236904D01*
X77305057Y-86236904D02*
X77400295Y-86189285D01*
X77400295Y-86189285D02*
X77495533Y-86189285D01*
X77495533Y-86189285D02*
X77638390Y-86236904D01*
X77638390Y-86236904D02*
X78209819Y-86808332D01*
X78209819Y-86808332D02*
X78209819Y-86189285D01*
X76258333Y-82189580D02*
X76210714Y-82237200D01*
X76210714Y-82237200D02*
X76067857Y-82284819D01*
X76067857Y-82284819D02*
X75972619Y-82284819D01*
X75972619Y-82284819D02*
X75829762Y-82237200D01*
X75829762Y-82237200D02*
X75734524Y-82141961D01*
X75734524Y-82141961D02*
X75686905Y-82046723D01*
X75686905Y-82046723D02*
X75639286Y-81856247D01*
X75639286Y-81856247D02*
X75639286Y-81713390D01*
X75639286Y-81713390D02*
X75686905Y-81522914D01*
X75686905Y-81522914D02*
X75734524Y-81427676D01*
X75734524Y-81427676D02*
X75829762Y-81332438D01*
X75829762Y-81332438D02*
X75972619Y-81284819D01*
X75972619Y-81284819D02*
X76067857Y-81284819D01*
X76067857Y-81284819D02*
X76210714Y-81332438D01*
X76210714Y-81332438D02*
X76258333Y-81380057D01*
X77115476Y-81618152D02*
X77115476Y-82284819D01*
X76877381Y-81237200D02*
X76639286Y-81951485D01*
X76639286Y-81951485D02*
X77258333Y-81951485D01*
X73100595Y-79664819D02*
X73100595Y-80474342D01*
X73100595Y-80474342D02*
X73148214Y-80569580D01*
X73148214Y-80569580D02*
X73195833Y-80617200D01*
X73195833Y-80617200D02*
X73291071Y-80664819D01*
X73291071Y-80664819D02*
X73481547Y-80664819D01*
X73481547Y-80664819D02*
X73576785Y-80617200D01*
X73576785Y-80617200D02*
X73624404Y-80569580D01*
X73624404Y-80569580D02*
X73672023Y-80474342D01*
X73672023Y-80474342D02*
X73672023Y-79664819D01*
X74672023Y-80664819D02*
X74100595Y-80664819D01*
X74386309Y-80664819D02*
X74386309Y-79664819D01*
X74386309Y-79664819D02*
X74291071Y-79807676D01*
X74291071Y-79807676D02*
X74195833Y-79902914D01*
X74195833Y-79902914D02*
X74100595Y-79950533D01*
D11*
%TO.C,C1*%
X78325000Y-86834420D02*
X78325000Y-87115580D01*
X79345000Y-86834420D02*
X79345000Y-87115580D01*
%TO.C,R3*%
X77462742Y-83827500D02*
X77937258Y-83827500D01*
X77462742Y-84872500D02*
X77937258Y-84872500D01*
%TO.C,R5*%
X71802500Y-92112258D02*
X71802500Y-91637742D01*
X72847500Y-92112258D02*
X72847500Y-91637742D01*
%TO.C,U4*%
X70252500Y-112935000D02*
X72252500Y-112935000D01*
X72252500Y-110715000D02*
X70252500Y-110715000D01*
X69812500Y-110965000D02*
X69532500Y-110965000D01*
X69812500Y-110685000D01*
X69812500Y-110965000D01*
G36*
X69812500Y-110965000D02*
G01*
X69532500Y-110965000D01*
X69812500Y-110685000D01*
X69812500Y-110965000D01*
G37*
%TO.C,R4*%
X78737742Y-90752500D02*
X79212258Y-90752500D01*
X78737742Y-91797500D02*
X79212258Y-91797500D01*
%TO.C,R2*%
X69962258Y-92402500D02*
X69487742Y-92402500D01*
X69962258Y-93447500D02*
X69487742Y-93447500D01*
%TO.C,SW1*%
X68650000Y-105000000D02*
X68650000Y-105120000D01*
X68650000Y-106130000D02*
X68650000Y-107270000D01*
X68650000Y-108280000D02*
X68650000Y-108400000D01*
X68650000Y-108400000D02*
X73050000Y-108400000D01*
X73050000Y-105000000D02*
X68650000Y-105000000D01*
X73050000Y-105120000D02*
X73050000Y-105000000D01*
X73050000Y-107270000D02*
X73050000Y-106130000D01*
X73050000Y-108400000D02*
X73050000Y-108280000D01*
%TO.C,D1*%
X70850000Y-95050000D02*
X78150000Y-95050000D01*
X70850000Y-100550000D02*
X78150000Y-100550000D01*
X78150000Y-100550000D02*
X78150000Y-99400000D01*
%TO.C,R7*%
X74897742Y-92742500D02*
X75372258Y-92742500D01*
X74897742Y-93787500D02*
X75372258Y-93787500D01*
%TO.C,D2*%
X69277500Y-102040000D02*
X69277500Y-103510000D01*
X69277500Y-103510000D02*
X71562500Y-103510000D01*
X71562500Y-102040000D02*
X69277500Y-102040000D01*
%TO.C,C5*%
X74824420Y-90765000D02*
X75105580Y-90765000D01*
X74824420Y-91785000D02*
X75105580Y-91785000D01*
%TO.C,R1*%
X69912258Y-90777500D02*
X69437742Y-90777500D01*
X69912258Y-91822500D02*
X69437742Y-91822500D01*
%TO.C,J3*%
X84045000Y-63495000D02*
X85375000Y-63495000D01*
X84045000Y-64825000D02*
X84045000Y-63495000D01*
X84045000Y-66095000D02*
X84045000Y-119495000D01*
X84045000Y-66095000D02*
X86705000Y-66095000D01*
X84045000Y-119495000D02*
X86705000Y-119495000D01*
X86705000Y-66095000D02*
X86705000Y-119495000D01*
%TO.C,C3*%
X78065580Y-81540000D02*
X77784420Y-81540000D01*
X78065580Y-82560000D02*
X77784420Y-82560000D01*
%TO.C,C6*%
X79184420Y-114615000D02*
X79465580Y-114615000D01*
X79184420Y-115635000D02*
X79465580Y-115635000D01*
%TO.C,U3*%
X66700000Y-57550000D02*
X66700000Y-60000000D01*
X66700000Y-57550000D02*
X69150000Y-57550000D01*
X66975000Y-57800000D02*
X82575000Y-57800000D01*
X66975000Y-78500000D02*
X66975000Y-57800000D01*
X82575000Y-57800000D02*
X82575000Y-78500000D01*
X82575000Y-78500000D02*
X66975000Y-78500000D01*
X66800000Y-64750000D02*
X66464000Y-64990000D01*
X66464000Y-64510000D01*
X66800000Y-64750000D01*
G36*
X66800000Y-64750000D02*
G01*
X66464000Y-64990000D01*
X66464000Y-64510000D01*
X66800000Y-64750000D01*
G37*
%TO.C,R6*%
X74477258Y-88977500D02*
X74002742Y-88977500D01*
X74477258Y-90022500D02*
X74002742Y-90022500D01*
%TO.C,J1*%
X70155000Y-121515000D02*
X70155000Y-119815000D01*
X79495000Y-121515000D02*
X79495000Y-119815000D01*
%TO.C,U2*%
X74487500Y-110715000D02*
X76487500Y-110715000D01*
X74487500Y-112935000D02*
X76487500Y-112935000D01*
X74247500Y-110815000D02*
X73967500Y-110815000D01*
X74247500Y-110535000D01*
X74247500Y-110815000D01*
G36*
X74247500Y-110815000D02*
G01*
X73967500Y-110815000D01*
X74247500Y-110535000D01*
X74247500Y-110815000D01*
G37*
%TO.C,J2*%
X62445000Y-63345000D02*
X63775000Y-63345000D01*
X62445000Y-64675000D02*
X62445000Y-63345000D01*
X62445000Y-65945000D02*
X62445000Y-119345000D01*
X62445000Y-65945000D02*
X65105000Y-65945000D01*
X62445000Y-119345000D02*
X65105000Y-119345000D01*
X65105000Y-65945000D02*
X65105000Y-119345000D01*
%TO.C,C7*%
X78390580Y-88990000D02*
X78109420Y-88990000D01*
X78390580Y-90010000D02*
X78109420Y-90010000D01*
%TO.C,R8*%
X78762742Y-92627500D02*
X79237258Y-92627500D01*
X78762742Y-93672500D02*
X79237258Y-93672500D01*
%TO.C,SW2*%
X75700000Y-104900000D02*
X75700000Y-105020000D01*
X75700000Y-106030000D02*
X75700000Y-107170000D01*
X75700000Y-108180000D02*
X75700000Y-108300000D01*
X75700000Y-108300000D02*
X80100000Y-108300000D01*
X80100000Y-104900000D02*
X75700000Y-104900000D01*
X80100000Y-105020000D02*
X80100000Y-104900000D01*
X80100000Y-107170000D02*
X80100000Y-106030000D01*
X80100000Y-108300000D02*
X80100000Y-108180000D01*
%TO.C,C2*%
X75815000Y-86834420D02*
X75815000Y-87115580D01*
X76835000Y-86834420D02*
X76835000Y-87115580D01*
%TO.C,C4*%
X76565580Y-79890000D02*
X76284420Y-79890000D01*
X76565580Y-80910000D02*
X76284420Y-80910000D01*
%TO.C,U1*%
X74362500Y-81390000D02*
X73362500Y-81390000D01*
X74362500Y-84110000D02*
X73362500Y-84110000D01*
X72972500Y-81440000D02*
X72692500Y-81440000D01*
X72972500Y-81160000D01*
X72972500Y-81440000D01*
G36*
X72972500Y-81440000D02*
G01*
X72692500Y-81440000D01*
X72972500Y-81160000D01*
X72972500Y-81440000D01*
G37*
%TD*%
M02*
