%TF.GenerationSoftware,KiCad,Pcbnew,8.0.3*%
%TF.CreationDate,2024-10-04T21:01:27+05:30*%
%TF.ProjectId,TP4056,54503430-3536-42e6-9b69-6361645f7063,rev?*%
%TF.SameCoordinates,Original*%
%TF.FileFunction,Legend,Bot*%
%TF.FilePolarity,Positive*%
%FSLAX46Y46*%
G04 Gerber Fmt 4.6, Leading zero omitted, Abs format (unit mm)*
G04 Created by KiCad (PCBNEW 8.0.3) date 2024-10-04 21:01:27*
%MOMM*%
%LPD*%
G01*
G04 APERTURE LIST*
%ADD10R,1.700000X1.700000*%
%ADD11O,1.700000X1.700000*%
%ADD12C,0.650000*%
%ADD13O,1.000000X2.100000*%
%ADD14O,1.000000X1.800000*%
G04 APERTURE END LIST*
%LPC*%
D10*
%TO.C,J3*%
X85375000Y-64825000D03*
D11*
X85375000Y-67365000D03*
X85375000Y-69905000D03*
X85375000Y-72445000D03*
X85375000Y-74985000D03*
X85375000Y-77525000D03*
X85375000Y-80065000D03*
X85375000Y-82605000D03*
X85375000Y-85145000D03*
X85375000Y-87685000D03*
X85375000Y-90225000D03*
X85375000Y-92765000D03*
X85375000Y-95305000D03*
X85375000Y-97845000D03*
X85375000Y-100385000D03*
X85375000Y-102925000D03*
X85375000Y-105465000D03*
X85375000Y-108005000D03*
X85375000Y-110545000D03*
X85375000Y-113085000D03*
X85375000Y-115625000D03*
X85375000Y-118165000D03*
%TD*%
D12*
%TO.C,J1*%
X71935000Y-119010000D03*
X77715000Y-119010000D03*
D13*
X70505000Y-118510000D03*
D14*
X70505000Y-122690000D03*
D13*
X79145000Y-118510000D03*
D14*
X79145000Y-122690000D03*
%TD*%
D10*
%TO.C,J2*%
X63775000Y-64675000D03*
D11*
X63775000Y-67215000D03*
X63775000Y-69755000D03*
X63775000Y-72295000D03*
X63775000Y-74835000D03*
X63775000Y-77375000D03*
X63775000Y-79915000D03*
X63775000Y-82455000D03*
X63775000Y-84995000D03*
X63775000Y-87535000D03*
X63775000Y-90075000D03*
X63775000Y-92615000D03*
X63775000Y-95155000D03*
X63775000Y-97695000D03*
X63775000Y-100235000D03*
X63775000Y-102775000D03*
X63775000Y-105315000D03*
X63775000Y-107855000D03*
X63775000Y-110395000D03*
X63775000Y-112935000D03*
X63775000Y-115475000D03*
X63775000Y-118015000D03*
%TD*%
%LPD*%
M02*
