%TF.GenerationSoftware,KiCad,Pcbnew,8.0.3*%
%TF.CreationDate,2024-10-04T21:01:36+05:30*%
%TF.ProjectId,TP4056,54503430-3536-42e6-9b69-6361645f7063,rev?*%
%TF.SameCoordinates,Original*%
%TF.FileFunction,Drillmap*%
%TF.FilePolarity,Positive*%
%FSLAX45Y45*%
G04 Gerber Fmt 4.5, Leading zero omitted, Abs format (unit mm)*
G04 Created by KiCad (PCBNEW 8.0.3) date 2024-10-04 21:01:36*
%MOMM*%
%LPD*%
G01*
G04 APERTURE LIST*
%ADD10C,0.050000*%
%ADD11C,0.200000*%
%ADD12C,0.100000*%
G04 APERTURE END LIST*
D10*
X6187500Y-6277500D02*
X8727500Y-6277500D01*
X8727500Y-12551500D01*
X6187500Y-12551500D01*
X6187500Y-6277500D01*
D11*
D12*
X7161000Y-11868500D02*
X7226000Y-11933500D01*
X7226000Y-11868500D02*
X7161000Y-11933500D01*
X7739000Y-11868500D02*
X7804000Y-11933500D01*
X7804000Y-11868500D02*
X7739000Y-11933500D01*
D11*
X6445777Y-12865484D02*
X6445777Y-12665484D01*
X6445777Y-12665484D02*
X6493396Y-12665484D01*
X6493396Y-12665484D02*
X6521967Y-12675008D01*
X6521967Y-12675008D02*
X6541015Y-12694055D01*
X6541015Y-12694055D02*
X6550539Y-12713103D01*
X6550539Y-12713103D02*
X6560062Y-12751198D01*
X6560062Y-12751198D02*
X6560062Y-12779769D01*
X6560062Y-12779769D02*
X6550539Y-12817865D01*
X6550539Y-12817865D02*
X6541015Y-12836912D01*
X6541015Y-12836912D02*
X6521967Y-12855960D01*
X6521967Y-12855960D02*
X6493396Y-12865484D01*
X6493396Y-12865484D02*
X6445777Y-12865484D01*
X6645777Y-12865484D02*
X6645777Y-12732150D01*
X6645777Y-12770246D02*
X6655301Y-12751198D01*
X6655301Y-12751198D02*
X6664824Y-12741674D01*
X6664824Y-12741674D02*
X6683872Y-12732150D01*
X6683872Y-12732150D02*
X6702920Y-12732150D01*
X6769586Y-12865484D02*
X6769586Y-12732150D01*
X6769586Y-12665484D02*
X6760062Y-12675008D01*
X6760062Y-12675008D02*
X6769586Y-12684531D01*
X6769586Y-12684531D02*
X6779110Y-12675008D01*
X6779110Y-12675008D02*
X6769586Y-12665484D01*
X6769586Y-12665484D02*
X6769586Y-12684531D01*
X6893396Y-12865484D02*
X6874348Y-12855960D01*
X6874348Y-12855960D02*
X6864824Y-12836912D01*
X6864824Y-12836912D02*
X6864824Y-12665484D01*
X6998158Y-12865484D02*
X6979110Y-12855960D01*
X6979110Y-12855960D02*
X6969586Y-12836912D01*
X6969586Y-12836912D02*
X6969586Y-12665484D01*
X7226729Y-12865484D02*
X7226729Y-12665484D01*
X7226729Y-12665484D02*
X7293396Y-12808341D01*
X7293396Y-12808341D02*
X7360062Y-12665484D01*
X7360062Y-12665484D02*
X7360062Y-12865484D01*
X7541015Y-12865484D02*
X7541015Y-12760722D01*
X7541015Y-12760722D02*
X7531491Y-12741674D01*
X7531491Y-12741674D02*
X7512443Y-12732150D01*
X7512443Y-12732150D02*
X7474348Y-12732150D01*
X7474348Y-12732150D02*
X7455301Y-12741674D01*
X7541015Y-12855960D02*
X7521967Y-12865484D01*
X7521967Y-12865484D02*
X7474348Y-12865484D01*
X7474348Y-12865484D02*
X7455301Y-12855960D01*
X7455301Y-12855960D02*
X7445777Y-12836912D01*
X7445777Y-12836912D02*
X7445777Y-12817865D01*
X7445777Y-12817865D02*
X7455301Y-12798817D01*
X7455301Y-12798817D02*
X7474348Y-12789293D01*
X7474348Y-12789293D02*
X7521967Y-12789293D01*
X7521967Y-12789293D02*
X7541015Y-12779769D01*
X7636253Y-12732150D02*
X7636253Y-12932150D01*
X7636253Y-12741674D02*
X7655301Y-12732150D01*
X7655301Y-12732150D02*
X7693396Y-12732150D01*
X7693396Y-12732150D02*
X7712443Y-12741674D01*
X7712443Y-12741674D02*
X7721967Y-12751198D01*
X7721967Y-12751198D02*
X7731491Y-12770246D01*
X7731491Y-12770246D02*
X7731491Y-12827388D01*
X7731491Y-12827388D02*
X7721967Y-12846436D01*
X7721967Y-12846436D02*
X7712443Y-12855960D01*
X7712443Y-12855960D02*
X7693396Y-12865484D01*
X7693396Y-12865484D02*
X7655301Y-12865484D01*
X7655301Y-12865484D02*
X7636253Y-12855960D01*
X7817205Y-12846436D02*
X7826729Y-12855960D01*
X7826729Y-12855960D02*
X7817205Y-12865484D01*
X7817205Y-12865484D02*
X7807682Y-12855960D01*
X7807682Y-12855960D02*
X7817205Y-12846436D01*
X7817205Y-12846436D02*
X7817205Y-12865484D01*
X7817205Y-12741674D02*
X7826729Y-12751198D01*
X7826729Y-12751198D02*
X7817205Y-12760722D01*
X7817205Y-12760722D02*
X7807682Y-12751198D01*
X7807682Y-12751198D02*
X7817205Y-12741674D01*
X7817205Y-12741674D02*
X7817205Y-12760722D01*
D12*
X6120000Y-13161500D02*
X6185000Y-13226500D01*
X6185000Y-13161500D02*
X6120000Y-13226500D01*
D11*
X6483872Y-13085484D02*
X6502920Y-13085484D01*
X6502920Y-13085484D02*
X6521967Y-13095008D01*
X6521967Y-13095008D02*
X6531491Y-13104531D01*
X6531491Y-13104531D02*
X6541015Y-13123579D01*
X6541015Y-13123579D02*
X6550539Y-13161674D01*
X6550539Y-13161674D02*
X6550539Y-13209293D01*
X6550539Y-13209293D02*
X6541015Y-13247388D01*
X6541015Y-13247388D02*
X6531491Y-13266436D01*
X6531491Y-13266436D02*
X6521967Y-13275960D01*
X6521967Y-13275960D02*
X6502920Y-13285484D01*
X6502920Y-13285484D02*
X6483872Y-13285484D01*
X6483872Y-13285484D02*
X6464824Y-13275960D01*
X6464824Y-13275960D02*
X6455301Y-13266436D01*
X6455301Y-13266436D02*
X6445777Y-13247388D01*
X6445777Y-13247388D02*
X6436253Y-13209293D01*
X6436253Y-13209293D02*
X6436253Y-13161674D01*
X6436253Y-13161674D02*
X6445777Y-13123579D01*
X6445777Y-13123579D02*
X6455301Y-13104531D01*
X6455301Y-13104531D02*
X6464824Y-13095008D01*
X6464824Y-13095008D02*
X6483872Y-13085484D01*
X6636253Y-13266436D02*
X6645777Y-13275960D01*
X6645777Y-13275960D02*
X6636253Y-13285484D01*
X6636253Y-13285484D02*
X6626729Y-13275960D01*
X6626729Y-13275960D02*
X6636253Y-13266436D01*
X6636253Y-13266436D02*
X6636253Y-13285484D01*
X6817205Y-13085484D02*
X6779110Y-13085484D01*
X6779110Y-13085484D02*
X6760062Y-13095008D01*
X6760062Y-13095008D02*
X6750539Y-13104531D01*
X6750539Y-13104531D02*
X6731491Y-13133103D01*
X6731491Y-13133103D02*
X6721967Y-13171198D01*
X6721967Y-13171198D02*
X6721967Y-13247388D01*
X6721967Y-13247388D02*
X6731491Y-13266436D01*
X6731491Y-13266436D02*
X6741015Y-13275960D01*
X6741015Y-13275960D02*
X6760062Y-13285484D01*
X6760062Y-13285484D02*
X6798158Y-13285484D01*
X6798158Y-13285484D02*
X6817205Y-13275960D01*
X6817205Y-13275960D02*
X6826729Y-13266436D01*
X6826729Y-13266436D02*
X6836253Y-13247388D01*
X6836253Y-13247388D02*
X6836253Y-13199769D01*
X6836253Y-13199769D02*
X6826729Y-13180722D01*
X6826729Y-13180722D02*
X6817205Y-13171198D01*
X6817205Y-13171198D02*
X6798158Y-13161674D01*
X6798158Y-13161674D02*
X6760062Y-13161674D01*
X6760062Y-13161674D02*
X6741015Y-13171198D01*
X6741015Y-13171198D02*
X6731491Y-13180722D01*
X6731491Y-13180722D02*
X6721967Y-13199769D01*
X7017205Y-13085484D02*
X6921967Y-13085484D01*
X6921967Y-13085484D02*
X6912443Y-13180722D01*
X6912443Y-13180722D02*
X6921967Y-13171198D01*
X6921967Y-13171198D02*
X6941015Y-13161674D01*
X6941015Y-13161674D02*
X6988634Y-13161674D01*
X6988634Y-13161674D02*
X7007682Y-13171198D01*
X7007682Y-13171198D02*
X7017205Y-13180722D01*
X7017205Y-13180722D02*
X7026729Y-13199769D01*
X7026729Y-13199769D02*
X7026729Y-13247388D01*
X7026729Y-13247388D02*
X7017205Y-13266436D01*
X7017205Y-13266436D02*
X7007682Y-13275960D01*
X7007682Y-13275960D02*
X6988634Y-13285484D01*
X6988634Y-13285484D02*
X6941015Y-13285484D01*
X6941015Y-13285484D02*
X6921967Y-13275960D01*
X6921967Y-13275960D02*
X6912443Y-13266436D01*
X7150539Y-13085484D02*
X7169586Y-13085484D01*
X7169586Y-13085484D02*
X7188634Y-13095008D01*
X7188634Y-13095008D02*
X7198158Y-13104531D01*
X7198158Y-13104531D02*
X7207682Y-13123579D01*
X7207682Y-13123579D02*
X7217205Y-13161674D01*
X7217205Y-13161674D02*
X7217205Y-13209293D01*
X7217205Y-13209293D02*
X7207682Y-13247388D01*
X7207682Y-13247388D02*
X7198158Y-13266436D01*
X7198158Y-13266436D02*
X7188634Y-13275960D01*
X7188634Y-13275960D02*
X7169586Y-13285484D01*
X7169586Y-13285484D02*
X7150539Y-13285484D01*
X7150539Y-13285484D02*
X7131491Y-13275960D01*
X7131491Y-13275960D02*
X7121967Y-13266436D01*
X7121967Y-13266436D02*
X7112443Y-13247388D01*
X7112443Y-13247388D02*
X7102920Y-13209293D01*
X7102920Y-13209293D02*
X7102920Y-13161674D01*
X7102920Y-13161674D02*
X7112443Y-13123579D01*
X7112443Y-13123579D02*
X7121967Y-13104531D01*
X7121967Y-13104531D02*
X7131491Y-13095008D01*
X7131491Y-13095008D02*
X7150539Y-13085484D01*
X7302920Y-13285484D02*
X7302920Y-13152150D01*
X7302920Y-13171198D02*
X7312443Y-13161674D01*
X7312443Y-13161674D02*
X7331491Y-13152150D01*
X7331491Y-13152150D02*
X7360063Y-13152150D01*
X7360063Y-13152150D02*
X7379110Y-13161674D01*
X7379110Y-13161674D02*
X7388634Y-13180722D01*
X7388634Y-13180722D02*
X7388634Y-13285484D01*
X7388634Y-13180722D02*
X7398158Y-13161674D01*
X7398158Y-13161674D02*
X7417205Y-13152150D01*
X7417205Y-13152150D02*
X7445777Y-13152150D01*
X7445777Y-13152150D02*
X7464824Y-13161674D01*
X7464824Y-13161674D02*
X7474348Y-13180722D01*
X7474348Y-13180722D02*
X7474348Y-13285484D01*
X7569586Y-13285484D02*
X7569586Y-13152150D01*
X7569586Y-13171198D02*
X7579110Y-13161674D01*
X7579110Y-13161674D02*
X7598158Y-13152150D01*
X7598158Y-13152150D02*
X7626729Y-13152150D01*
X7626729Y-13152150D02*
X7645777Y-13161674D01*
X7645777Y-13161674D02*
X7655301Y-13180722D01*
X7655301Y-13180722D02*
X7655301Y-13285484D01*
X7655301Y-13180722D02*
X7664824Y-13161674D01*
X7664824Y-13161674D02*
X7683872Y-13152150D01*
X7683872Y-13152150D02*
X7712443Y-13152150D01*
X7712443Y-13152150D02*
X7731491Y-13161674D01*
X7731491Y-13161674D02*
X7741015Y-13180722D01*
X7741015Y-13180722D02*
X7741015Y-13285484D01*
X8131491Y-13075960D02*
X7960063Y-13333103D01*
X8388634Y-13085484D02*
X8407682Y-13085484D01*
X8407682Y-13085484D02*
X8426729Y-13095008D01*
X8426729Y-13095008D02*
X8436253Y-13104531D01*
X8436253Y-13104531D02*
X8445777Y-13123579D01*
X8445777Y-13123579D02*
X8455301Y-13161674D01*
X8455301Y-13161674D02*
X8455301Y-13209293D01*
X8455301Y-13209293D02*
X8445777Y-13247388D01*
X8445777Y-13247388D02*
X8436253Y-13266436D01*
X8436253Y-13266436D02*
X8426729Y-13275960D01*
X8426729Y-13275960D02*
X8407682Y-13285484D01*
X8407682Y-13285484D02*
X8388634Y-13285484D01*
X8388634Y-13285484D02*
X8369586Y-13275960D01*
X8369586Y-13275960D02*
X8360063Y-13266436D01*
X8360063Y-13266436D02*
X8350539Y-13247388D01*
X8350539Y-13247388D02*
X8341015Y-13209293D01*
X8341015Y-13209293D02*
X8341015Y-13161674D01*
X8341015Y-13161674D02*
X8350539Y-13123579D01*
X8350539Y-13123579D02*
X8360063Y-13104531D01*
X8360063Y-13104531D02*
X8369586Y-13095008D01*
X8369586Y-13095008D02*
X8388634Y-13085484D01*
X8541015Y-13266436D02*
X8550539Y-13275960D01*
X8550539Y-13275960D02*
X8541015Y-13285484D01*
X8541015Y-13285484D02*
X8531491Y-13275960D01*
X8531491Y-13275960D02*
X8541015Y-13266436D01*
X8541015Y-13266436D02*
X8541015Y-13285484D01*
X8674348Y-13085484D02*
X8693396Y-13085484D01*
X8693396Y-13085484D02*
X8712444Y-13095008D01*
X8712444Y-13095008D02*
X8721968Y-13104531D01*
X8721968Y-13104531D02*
X8731491Y-13123579D01*
X8731491Y-13123579D02*
X8741015Y-13161674D01*
X8741015Y-13161674D02*
X8741015Y-13209293D01*
X8741015Y-13209293D02*
X8731491Y-13247388D01*
X8731491Y-13247388D02*
X8721968Y-13266436D01*
X8721968Y-13266436D02*
X8712444Y-13275960D01*
X8712444Y-13275960D02*
X8693396Y-13285484D01*
X8693396Y-13285484D02*
X8674348Y-13285484D01*
X8674348Y-13285484D02*
X8655301Y-13275960D01*
X8655301Y-13275960D02*
X8645777Y-13266436D01*
X8645777Y-13266436D02*
X8636253Y-13247388D01*
X8636253Y-13247388D02*
X8626729Y-13209293D01*
X8626729Y-13209293D02*
X8626729Y-13161674D01*
X8626729Y-13161674D02*
X8636253Y-13123579D01*
X8636253Y-13123579D02*
X8645777Y-13104531D01*
X8645777Y-13104531D02*
X8655301Y-13095008D01*
X8655301Y-13095008D02*
X8674348Y-13085484D01*
X8817206Y-13104531D02*
X8826729Y-13095008D01*
X8826729Y-13095008D02*
X8845777Y-13085484D01*
X8845777Y-13085484D02*
X8893396Y-13085484D01*
X8893396Y-13085484D02*
X8912444Y-13095008D01*
X8912444Y-13095008D02*
X8921968Y-13104531D01*
X8921968Y-13104531D02*
X8931491Y-13123579D01*
X8931491Y-13123579D02*
X8931491Y-13142627D01*
X8931491Y-13142627D02*
X8921968Y-13171198D01*
X8921968Y-13171198D02*
X8807682Y-13285484D01*
X8807682Y-13285484D02*
X8931491Y-13285484D01*
X9112444Y-13085484D02*
X9017206Y-13085484D01*
X9017206Y-13085484D02*
X9007682Y-13180722D01*
X9007682Y-13180722D02*
X9017206Y-13171198D01*
X9017206Y-13171198D02*
X9036253Y-13161674D01*
X9036253Y-13161674D02*
X9083872Y-13161674D01*
X9083872Y-13161674D02*
X9102920Y-13171198D01*
X9102920Y-13171198D02*
X9112444Y-13180722D01*
X9112444Y-13180722D02*
X9121968Y-13199769D01*
X9121968Y-13199769D02*
X9121968Y-13247388D01*
X9121968Y-13247388D02*
X9112444Y-13266436D01*
X9112444Y-13266436D02*
X9102920Y-13275960D01*
X9102920Y-13275960D02*
X9083872Y-13285484D01*
X9083872Y-13285484D02*
X9036253Y-13285484D01*
X9036253Y-13285484D02*
X9017206Y-13275960D01*
X9017206Y-13275960D02*
X9007682Y-13266436D01*
X9293396Y-13085484D02*
X9255301Y-13085484D01*
X9255301Y-13085484D02*
X9236253Y-13095008D01*
X9236253Y-13095008D02*
X9226729Y-13104531D01*
X9226729Y-13104531D02*
X9207682Y-13133103D01*
X9207682Y-13133103D02*
X9198158Y-13171198D01*
X9198158Y-13171198D02*
X9198158Y-13247388D01*
X9198158Y-13247388D02*
X9207682Y-13266436D01*
X9207682Y-13266436D02*
X9217206Y-13275960D01*
X9217206Y-13275960D02*
X9236253Y-13285484D01*
X9236253Y-13285484D02*
X9274349Y-13285484D01*
X9274349Y-13285484D02*
X9293396Y-13275960D01*
X9293396Y-13275960D02*
X9302920Y-13266436D01*
X9302920Y-13266436D02*
X9312444Y-13247388D01*
X9312444Y-13247388D02*
X9312444Y-13199769D01*
X9312444Y-13199769D02*
X9302920Y-13180722D01*
X9302920Y-13180722D02*
X9293396Y-13171198D01*
X9293396Y-13171198D02*
X9274349Y-13161674D01*
X9274349Y-13161674D02*
X9236253Y-13161674D01*
X9236253Y-13161674D02*
X9217206Y-13171198D01*
X9217206Y-13171198D02*
X9207682Y-13180722D01*
X9207682Y-13180722D02*
X9198158Y-13199769D01*
X9388634Y-13085484D02*
X9388634Y-13123579D01*
X9464825Y-13085484D02*
X9464825Y-13123579D01*
X9760063Y-13361674D02*
X9750539Y-13352150D01*
X9750539Y-13352150D02*
X9731491Y-13323579D01*
X9731491Y-13323579D02*
X9721968Y-13304531D01*
X9721968Y-13304531D02*
X9712444Y-13275960D01*
X9712444Y-13275960D02*
X9702920Y-13228341D01*
X9702920Y-13228341D02*
X9702920Y-13190246D01*
X9702920Y-13190246D02*
X9712444Y-13142627D01*
X9712444Y-13142627D02*
X9721968Y-13114055D01*
X9721968Y-13114055D02*
X9731491Y-13095008D01*
X9731491Y-13095008D02*
X9750539Y-13066436D01*
X9750539Y-13066436D02*
X9760063Y-13056912D01*
X9826730Y-13104531D02*
X9836253Y-13095008D01*
X9836253Y-13095008D02*
X9855301Y-13085484D01*
X9855301Y-13085484D02*
X9902920Y-13085484D01*
X9902920Y-13085484D02*
X9921968Y-13095008D01*
X9921968Y-13095008D02*
X9931491Y-13104531D01*
X9931491Y-13104531D02*
X9941015Y-13123579D01*
X9941015Y-13123579D02*
X9941015Y-13142627D01*
X9941015Y-13142627D02*
X9931491Y-13171198D01*
X9931491Y-13171198D02*
X9817206Y-13285484D01*
X9817206Y-13285484D02*
X9941015Y-13285484D01*
X10179111Y-13285484D02*
X10179111Y-13085484D01*
X10264825Y-13285484D02*
X10264825Y-13180722D01*
X10264825Y-13180722D02*
X10255301Y-13161674D01*
X10255301Y-13161674D02*
X10236253Y-13152150D01*
X10236253Y-13152150D02*
X10207682Y-13152150D01*
X10207682Y-13152150D02*
X10188634Y-13161674D01*
X10188634Y-13161674D02*
X10179111Y-13171198D01*
X10388634Y-13285484D02*
X10369587Y-13275960D01*
X10369587Y-13275960D02*
X10360063Y-13266436D01*
X10360063Y-13266436D02*
X10350539Y-13247388D01*
X10350539Y-13247388D02*
X10350539Y-13190246D01*
X10350539Y-13190246D02*
X10360063Y-13171198D01*
X10360063Y-13171198D02*
X10369587Y-13161674D01*
X10369587Y-13161674D02*
X10388634Y-13152150D01*
X10388634Y-13152150D02*
X10417206Y-13152150D01*
X10417206Y-13152150D02*
X10436253Y-13161674D01*
X10436253Y-13161674D02*
X10445777Y-13171198D01*
X10445777Y-13171198D02*
X10455301Y-13190246D01*
X10455301Y-13190246D02*
X10455301Y-13247388D01*
X10455301Y-13247388D02*
X10445777Y-13266436D01*
X10445777Y-13266436D02*
X10436253Y-13275960D01*
X10436253Y-13275960D02*
X10417206Y-13285484D01*
X10417206Y-13285484D02*
X10388634Y-13285484D01*
X10569587Y-13285484D02*
X10550539Y-13275960D01*
X10550539Y-13275960D02*
X10541015Y-13256912D01*
X10541015Y-13256912D02*
X10541015Y-13085484D01*
X10721968Y-13275960D02*
X10702920Y-13285484D01*
X10702920Y-13285484D02*
X10664825Y-13285484D01*
X10664825Y-13285484D02*
X10645777Y-13275960D01*
X10645777Y-13275960D02*
X10636253Y-13256912D01*
X10636253Y-13256912D02*
X10636253Y-13180722D01*
X10636253Y-13180722D02*
X10645777Y-13161674D01*
X10645777Y-13161674D02*
X10664825Y-13152150D01*
X10664825Y-13152150D02*
X10702920Y-13152150D01*
X10702920Y-13152150D02*
X10721968Y-13161674D01*
X10721968Y-13161674D02*
X10731492Y-13180722D01*
X10731492Y-13180722D02*
X10731492Y-13199769D01*
X10731492Y-13199769D02*
X10636253Y-13218817D01*
X10807682Y-13275960D02*
X10826730Y-13285484D01*
X10826730Y-13285484D02*
X10864825Y-13285484D01*
X10864825Y-13285484D02*
X10883873Y-13275960D01*
X10883873Y-13275960D02*
X10893396Y-13256912D01*
X10893396Y-13256912D02*
X10893396Y-13247388D01*
X10893396Y-13247388D02*
X10883873Y-13228341D01*
X10883873Y-13228341D02*
X10864825Y-13218817D01*
X10864825Y-13218817D02*
X10836253Y-13218817D01*
X10836253Y-13218817D02*
X10817206Y-13209293D01*
X10817206Y-13209293D02*
X10807682Y-13190246D01*
X10807682Y-13190246D02*
X10807682Y-13180722D01*
X10807682Y-13180722D02*
X10817206Y-13161674D01*
X10817206Y-13161674D02*
X10836253Y-13152150D01*
X10836253Y-13152150D02*
X10864825Y-13152150D01*
X10864825Y-13152150D02*
X10883873Y-13161674D01*
X10960063Y-13361674D02*
X10969587Y-13352150D01*
X10969587Y-13352150D02*
X10988634Y-13323579D01*
X10988634Y-13323579D02*
X10998158Y-13304531D01*
X10998158Y-13304531D02*
X11007682Y-13275960D01*
X11007682Y-13275960D02*
X11017206Y-13228341D01*
X11017206Y-13228341D02*
X11017206Y-13190246D01*
X11017206Y-13190246D02*
X11007682Y-13142627D01*
X11007682Y-13142627D02*
X10998158Y-13114055D01*
X10998158Y-13114055D02*
X10988634Y-13095008D01*
X10988634Y-13095008D02*
X10969587Y-13066436D01*
X10969587Y-13066436D02*
X10960063Y-13056912D01*
X11321968Y-13361674D02*
X11312444Y-13352150D01*
X11312444Y-13352150D02*
X11293396Y-13323579D01*
X11293396Y-13323579D02*
X11283872Y-13304531D01*
X11283872Y-13304531D02*
X11274349Y-13275960D01*
X11274349Y-13275960D02*
X11264825Y-13228341D01*
X11264825Y-13228341D02*
X11264825Y-13190246D01*
X11264825Y-13190246D02*
X11274349Y-13142627D01*
X11274349Y-13142627D02*
X11283872Y-13114055D01*
X11283872Y-13114055D02*
X11293396Y-13095008D01*
X11293396Y-13095008D02*
X11312444Y-13066436D01*
X11312444Y-13066436D02*
X11321968Y-13056912D01*
X11398158Y-13152150D02*
X11398158Y-13285484D01*
X11398158Y-13171198D02*
X11407682Y-13161674D01*
X11407682Y-13161674D02*
X11426730Y-13152150D01*
X11426730Y-13152150D02*
X11455301Y-13152150D01*
X11455301Y-13152150D02*
X11474349Y-13161674D01*
X11474349Y-13161674D02*
X11483872Y-13180722D01*
X11483872Y-13180722D02*
X11483872Y-13285484D01*
X11607682Y-13285484D02*
X11588634Y-13275960D01*
X11588634Y-13275960D02*
X11579111Y-13266436D01*
X11579111Y-13266436D02*
X11569587Y-13247388D01*
X11569587Y-13247388D02*
X11569587Y-13190246D01*
X11569587Y-13190246D02*
X11579111Y-13171198D01*
X11579111Y-13171198D02*
X11588634Y-13161674D01*
X11588634Y-13161674D02*
X11607682Y-13152150D01*
X11607682Y-13152150D02*
X11636253Y-13152150D01*
X11636253Y-13152150D02*
X11655301Y-13161674D01*
X11655301Y-13161674D02*
X11664825Y-13171198D01*
X11664825Y-13171198D02*
X11674349Y-13190246D01*
X11674349Y-13190246D02*
X11674349Y-13247388D01*
X11674349Y-13247388D02*
X11664825Y-13266436D01*
X11664825Y-13266436D02*
X11655301Y-13275960D01*
X11655301Y-13275960D02*
X11636253Y-13285484D01*
X11636253Y-13285484D02*
X11607682Y-13285484D01*
X11731492Y-13152150D02*
X11807682Y-13152150D01*
X11760063Y-13085484D02*
X11760063Y-13256912D01*
X11760063Y-13256912D02*
X11769587Y-13275960D01*
X11769587Y-13275960D02*
X11788634Y-13285484D01*
X11788634Y-13285484D02*
X11807682Y-13285484D01*
X12026730Y-13152150D02*
X12026730Y-13352150D01*
X12026730Y-13161674D02*
X12045777Y-13152150D01*
X12045777Y-13152150D02*
X12083873Y-13152150D01*
X12083873Y-13152150D02*
X12102920Y-13161674D01*
X12102920Y-13161674D02*
X12112444Y-13171198D01*
X12112444Y-13171198D02*
X12121968Y-13190246D01*
X12121968Y-13190246D02*
X12121968Y-13247388D01*
X12121968Y-13247388D02*
X12112444Y-13266436D01*
X12112444Y-13266436D02*
X12102920Y-13275960D01*
X12102920Y-13275960D02*
X12083873Y-13285484D01*
X12083873Y-13285484D02*
X12045777Y-13285484D01*
X12045777Y-13285484D02*
X12026730Y-13275960D01*
X12236253Y-13285484D02*
X12217206Y-13275960D01*
X12217206Y-13275960D02*
X12207682Y-13256912D01*
X12207682Y-13256912D02*
X12207682Y-13085484D01*
X12398158Y-13285484D02*
X12398158Y-13180722D01*
X12398158Y-13180722D02*
X12388634Y-13161674D01*
X12388634Y-13161674D02*
X12369587Y-13152150D01*
X12369587Y-13152150D02*
X12331492Y-13152150D01*
X12331492Y-13152150D02*
X12312444Y-13161674D01*
X12398158Y-13275960D02*
X12379111Y-13285484D01*
X12379111Y-13285484D02*
X12331492Y-13285484D01*
X12331492Y-13285484D02*
X12312444Y-13275960D01*
X12312444Y-13275960D02*
X12302920Y-13256912D01*
X12302920Y-13256912D02*
X12302920Y-13237865D01*
X12302920Y-13237865D02*
X12312444Y-13218817D01*
X12312444Y-13218817D02*
X12331492Y-13209293D01*
X12331492Y-13209293D02*
X12379111Y-13209293D01*
X12379111Y-13209293D02*
X12398158Y-13199769D01*
X12464825Y-13152150D02*
X12541015Y-13152150D01*
X12493396Y-13085484D02*
X12493396Y-13256912D01*
X12493396Y-13256912D02*
X12502920Y-13275960D01*
X12502920Y-13275960D02*
X12521968Y-13285484D01*
X12521968Y-13285484D02*
X12541015Y-13285484D01*
X12683873Y-13275960D02*
X12664825Y-13285484D01*
X12664825Y-13285484D02*
X12626730Y-13285484D01*
X12626730Y-13285484D02*
X12607682Y-13275960D01*
X12607682Y-13275960D02*
X12598158Y-13256912D01*
X12598158Y-13256912D02*
X12598158Y-13180722D01*
X12598158Y-13180722D02*
X12607682Y-13161674D01*
X12607682Y-13161674D02*
X12626730Y-13152150D01*
X12626730Y-13152150D02*
X12664825Y-13152150D01*
X12664825Y-13152150D02*
X12683873Y-13161674D01*
X12683873Y-13161674D02*
X12693396Y-13180722D01*
X12693396Y-13180722D02*
X12693396Y-13199769D01*
X12693396Y-13199769D02*
X12598158Y-13218817D01*
X12864825Y-13285484D02*
X12864825Y-13085484D01*
X12864825Y-13275960D02*
X12845777Y-13285484D01*
X12845777Y-13285484D02*
X12807682Y-13285484D01*
X12807682Y-13285484D02*
X12788634Y-13275960D01*
X12788634Y-13275960D02*
X12779111Y-13266436D01*
X12779111Y-13266436D02*
X12769587Y-13247388D01*
X12769587Y-13247388D02*
X12769587Y-13190246D01*
X12769587Y-13190246D02*
X12779111Y-13171198D01*
X12779111Y-13171198D02*
X12788634Y-13161674D01*
X12788634Y-13161674D02*
X12807682Y-13152150D01*
X12807682Y-13152150D02*
X12845777Y-13152150D01*
X12845777Y-13152150D02*
X12864825Y-13161674D01*
X12941015Y-13361674D02*
X12950539Y-13352150D01*
X12950539Y-13352150D02*
X12969587Y-13323579D01*
X12969587Y-13323579D02*
X12979111Y-13304531D01*
X12979111Y-13304531D02*
X12988634Y-13275960D01*
X12988634Y-13275960D02*
X12998158Y-13228341D01*
X12998158Y-13228341D02*
X12998158Y-13190246D01*
X12998158Y-13190246D02*
X12988634Y-13142627D01*
X12988634Y-13142627D02*
X12979111Y-13114055D01*
X12979111Y-13114055D02*
X12969587Y-13095008D01*
X12969587Y-13095008D02*
X12950539Y-13066436D01*
X12950539Y-13066436D02*
X12941015Y-13056912D01*
M02*
