%TF.GenerationSoftware,KiCad,Pcbnew,8.0.3*%
%TF.CreationDate,2024-10-04T20:59:14+05:30*%
%TF.ProjectId,TP4056,54503430-3536-42e6-9b69-6361645f7063,rev?*%
%TF.SameCoordinates,Original*%
%TF.FileFunction,Copper,L2,Bot*%
%TF.FilePolarity,Positive*%
%FSLAX46Y46*%
G04 Gerber Fmt 4.6, Leading zero omitted, Abs format (unit mm)*
G04 Created by KiCad (PCBNEW 8.0.3) date 2024-10-04 20:59:14*
%MOMM*%
%LPD*%
G01*
G04 APERTURE LIST*
%TA.AperFunction,ComponentPad*%
%ADD10R,1.700000X1.700000*%
%TD*%
%TA.AperFunction,ComponentPad*%
%ADD11O,1.700000X1.700000*%
%TD*%
%TA.AperFunction,ComponentPad*%
%ADD12O,1.000000X2.100000*%
%TD*%
%TA.AperFunction,ComponentPad*%
%ADD13O,1.000000X1.800000*%
%TD*%
%TA.AperFunction,ViaPad*%
%ADD14C,0.600000*%
%TD*%
%TA.AperFunction,Conductor*%
%ADD15C,0.200000*%
%TD*%
G04 APERTURE END LIST*
D10*
%TO.P,J3,1,Pin_1*%
%TO.N,GND*%
X85375000Y-64825000D03*
D11*
%TO.P,J3,2,Pin_2*%
%TO.N,/ESP32_EN*%
X85375000Y-67365000D03*
%TO.P,J3,3,Pin_3*%
%TO.N,/GPIO46*%
X85375000Y-69905000D03*
%TO.P,J3,4,Pin_4*%
%TO.N,/GPIO45*%
X85375000Y-72445000D03*
%TO.P,J3,5,Pin_5*%
%TO.N,/RXD*%
X85375000Y-74985000D03*
%TO.P,J3,6,Pin_6*%
%TO.N,/TXD*%
X85375000Y-77525000D03*
%TO.P,J3,7,Pin_7*%
%TO.N,/GPIO42*%
X85375000Y-80065000D03*
%TO.P,J3,8,Pin_8*%
%TO.N,/GPIO41*%
X85375000Y-82605000D03*
%TO.P,J3,9,Pin_9*%
%TO.N,/GPIO40*%
X85375000Y-85145000D03*
%TO.P,J3,10,Pin_10*%
%TO.N,/GPIO39*%
X85375000Y-87685000D03*
%TO.P,J3,11,Pin_11*%
%TO.N,/GPIO38*%
X85375000Y-90225000D03*
%TO.P,J3,12,Pin_12*%
%TO.N,/GPIO37*%
X85375000Y-92765000D03*
%TO.P,J3,13,Pin_13*%
%TO.N,/GPIO36*%
X85375000Y-95305000D03*
%TO.P,J3,14,Pin_14*%
%TO.N,/GPIO35*%
X85375000Y-97845000D03*
%TO.P,J3,15,Pin_15*%
%TO.N,/GPIO34*%
X85375000Y-100385000D03*
%TO.P,J3,16,Pin_16*%
%TO.N,/GPIO33*%
X85375000Y-102925000D03*
%TO.P,J3,17,Pin_17*%
%TO.N,/GPIO26*%
X85375000Y-105465000D03*
%TO.P,J3,18,Pin_18*%
%TO.N,/GPIO21*%
X85375000Y-108005000D03*
%TO.P,J3,19,Pin_19*%
%TO.N,/USB_N*%
X85375000Y-110545000D03*
%TO.P,J3,20,Pin_20*%
%TO.N,/USB_P*%
X85375000Y-113085000D03*
%TO.P,J3,21,Pin_21*%
%TO.N,/GPIO48*%
X85375000Y-115625000D03*
%TO.P,J3,22,Pin_22*%
%TO.N,/GPIO47*%
X85375000Y-118165000D03*
%TD*%
D12*
%TO.P,J1,S1,SHIELD*%
%TO.N,GND*%
X70505000Y-118510000D03*
D13*
X70505000Y-122690000D03*
D12*
X79145000Y-118510000D03*
D13*
X79145000Y-122690000D03*
%TD*%
D10*
%TO.P,J2,1,Pin_1*%
%TO.N,/3V3*%
X63775000Y-64675000D03*
D11*
%TO.P,J2,2,Pin_2*%
%TO.N,/GPIO0*%
X63775000Y-67215000D03*
%TO.P,J2,3,Pin_3*%
%TO.N,/GPIO1*%
X63775000Y-69755000D03*
%TO.P,J2,4,Pin_4*%
%TO.N,/GPIO2*%
X63775000Y-72295000D03*
%TO.P,J2,5,Pin_5*%
%TO.N,/GPIO3*%
X63775000Y-74835000D03*
%TO.P,J2,6,Pin_6*%
%TO.N,/GPIO4*%
X63775000Y-77375000D03*
%TO.P,J2,7,Pin_7*%
%TO.N,/GPIO5*%
X63775000Y-79915000D03*
%TO.P,J2,8,Pin_8*%
%TO.N,/GPIO6*%
X63775000Y-82455000D03*
%TO.P,J2,9,Pin_9*%
%TO.N,/GPIO7*%
X63775000Y-84995000D03*
%TO.P,J2,10,Pin_10*%
%TO.N,/GPIO8*%
X63775000Y-87535000D03*
%TO.P,J2,11,Pin_11*%
%TO.N,/GPIO9*%
X63775000Y-90075000D03*
%TO.P,J2,12,Pin_12*%
%TO.N,/GPIO10*%
X63775000Y-92615000D03*
%TO.P,J2,13,Pin_13*%
%TO.N,/GPIO11*%
X63775000Y-95155000D03*
%TO.P,J2,14,Pin_14*%
%TO.N,/GPIO12*%
X63775000Y-97695000D03*
%TO.P,J2,15,Pin_15*%
%TO.N,/GPIO13*%
X63775000Y-100235000D03*
%TO.P,J2,16,Pin_16*%
%TO.N,/GPIO14*%
X63775000Y-102775000D03*
%TO.P,J2,17,Pin_17*%
%TO.N,/GPIO15*%
X63775000Y-105315000D03*
%TO.P,J2,18,Pin_18*%
%TO.N,/GPIO16*%
X63775000Y-107855000D03*
%TO.P,J2,19,Pin_19*%
%TO.N,/I2C_SCL*%
X63775000Y-110395000D03*
%TO.P,J2,20,Pin_20*%
%TO.N,/I2C_SDA*%
X63775000Y-112935000D03*
%TO.P,J2,21,Pin_21*%
%TO.N,/5VUSB*%
X63775000Y-115475000D03*
%TO.P,J2,22,Pin_22*%
%TO.N,GND*%
X63775000Y-118015000D03*
%TD*%
D14*
%TO.N,/3V3*%
X66550000Y-65450000D03*
X75975000Y-83775000D03*
X72025000Y-95350000D03*
X73283877Y-91400001D03*
X71900000Y-106250000D03*
%TO.N,GND*%
X75675000Y-79550000D03*
X69075000Y-94735000D03*
X69625000Y-76799998D03*
X68050000Y-91700000D03*
X79059313Y-76234313D03*
%TO.N,/ESP32_EN*%
X79025000Y-83150000D03*
X86125000Y-66175002D03*
%TO.N,/GPIO0*%
X69175000Y-67450000D03*
X76875735Y-79424265D03*
%TO.N,/5VUSB*%
X72800000Y-119350000D03*
X64875000Y-116525000D03*
X76425000Y-106350002D03*
X73675000Y-87175000D03*
%TO.N,/GPIO48*%
X76800000Y-94500000D03*
X79625000Y-76800000D03*
%TO.N,Net-(D2-A)*%
X79500000Y-94375000D03*
X75300000Y-94575000D03*
%TO.N,/USB_N*%
X72550000Y-90075000D03*
X75999265Y-116724265D03*
%TO.N,/USB_P*%
X75175000Y-116700000D03*
X85232189Y-114282573D03*
X82425000Y-112600000D03*
%TO.N,Net-(J1-CC2)*%
X73625000Y-113525000D03*
X71300000Y-91400000D03*
%TO.N,Net-(J1-CC1)*%
X73425000Y-116750000D03*
X70375000Y-93900000D03*
%TO.N,/I2C_SDA*%
X71225156Y-90556976D03*
X66675000Y-112225000D03*
%TO.N,/GPIO10*%
X68665292Y-75248058D03*
X63025000Y-91550000D03*
%TO.N,/I2C_SCL*%
X80760000Y-92600000D03*
%TO.N,/GPIO21*%
X83175000Y-107925000D03*
%TO.N,/GPIO37*%
X80450000Y-74900000D03*
X86125000Y-91725000D03*
%TO.N,/GPIO39*%
X80725000Y-73125000D03*
X86475000Y-86475000D03*
%TO.N,/GPIO36*%
X86375000Y-93975000D03*
X80959094Y-75517112D03*
%TO.N,/GPIO38*%
X86475000Y-89600000D03*
X79925691Y-73091696D03*
%TO.N,Net-(U2-FB)*%
X73408871Y-90554834D03*
X73325000Y-93725000D03*
X73575000Y-111550000D03*
%TD*%
D15*
%TO.N,/3V3*%
X68050000Y-71050000D02*
X68050000Y-70450000D01*
X71950000Y-95150000D02*
X71950000Y-91675000D01*
X74675000Y-77675000D02*
X71675000Y-74675000D01*
X75609314Y-81100000D02*
X74675000Y-80165686D01*
X73008878Y-91675000D02*
X71950000Y-91675000D01*
X71950000Y-87800000D02*
X75975000Y-83775000D01*
X74675000Y-80165686D02*
X74675000Y-79834314D01*
X68050000Y-70450000D02*
X68050000Y-66950000D01*
X72025000Y-95225000D02*
X72025000Y-95350000D01*
X71950000Y-91675000D02*
X71950000Y-87800000D01*
X71675000Y-74675000D02*
X68050000Y-71050000D01*
X71900000Y-95475000D02*
X72025000Y-95350000D01*
X75975000Y-83775000D02*
X75975000Y-81465685D01*
X71900000Y-106250000D02*
X71900000Y-95475000D01*
X71950000Y-95150000D02*
X72025000Y-95225000D01*
X73283877Y-91400001D02*
X73008878Y-91675000D01*
X68050000Y-66950000D02*
X66550000Y-65450000D01*
X75975000Y-81465685D02*
X75609314Y-81100000D01*
X74675000Y-79834314D02*
X74675000Y-77675000D01*
%TO.N,GND*%
X67850000Y-79125000D02*
X69625000Y-77350000D01*
X77550735Y-80024265D02*
X78300000Y-79275000D01*
X68050000Y-79325000D02*
X67850000Y-79125000D01*
X69625000Y-77350000D02*
X69625000Y-76799998D01*
X75675000Y-79550000D02*
X76152941Y-79550000D01*
X78300000Y-79275000D02*
X78300000Y-76993626D01*
X78300000Y-76993626D02*
X79059313Y-76234313D01*
X76152941Y-79550000D02*
X76627206Y-80024265D01*
X68050000Y-91700000D02*
X68050000Y-79325000D01*
X76627206Y-80024265D02*
X77550735Y-80024265D01*
%TO.N,/ESP32_EN*%
X75075000Y-80000000D02*
X75075000Y-77750000D01*
X79025000Y-83150000D02*
X79025000Y-81775000D01*
X75775000Y-80700000D02*
X75075000Y-80000000D01*
X68850000Y-66000000D02*
X86125000Y-66000000D01*
X75075000Y-77750000D02*
X75375000Y-77450000D01*
X75375000Y-77450000D02*
X68450000Y-70525000D01*
X77950000Y-80700000D02*
X75775000Y-80700000D01*
X86125000Y-66000000D02*
X86125000Y-66175002D01*
X79025000Y-81775000D02*
X77950000Y-80700000D01*
X68450000Y-66250000D02*
X68775000Y-65925000D01*
X68450000Y-70525000D02*
X68450000Y-66250000D01*
X68775000Y-65925000D02*
X68850000Y-66000000D01*
%TO.N,/GPIO0*%
X69500000Y-67525000D02*
X69425000Y-67450000D01*
X76875735Y-79424265D02*
X76875735Y-74900735D01*
X69425000Y-67450000D02*
X69175000Y-67450000D01*
X76875735Y-74900735D02*
X69500000Y-67525000D01*
%TO.N,/5VUSB*%
X64875000Y-116525000D02*
X68210000Y-119860000D01*
X76425000Y-106350002D02*
X76425000Y-105000000D01*
X72290000Y-119860000D02*
X72800000Y-119350000D01*
X68210000Y-119860000D02*
X72290000Y-119860000D01*
X74700000Y-88200000D02*
X73675000Y-87175000D01*
X74700000Y-103275000D02*
X74700000Y-88200000D01*
X76425000Y-105000000D02*
X75075000Y-103650000D01*
X75075000Y-103650000D02*
X74700000Y-103275000D01*
%TO.N,/GPIO48*%
X79625000Y-76800000D02*
X79625000Y-92600000D01*
X79625000Y-92600000D02*
X77600000Y-94625000D01*
X77600000Y-94625000D02*
X76925000Y-94625000D01*
X76925000Y-94625000D02*
X76800000Y-94500000D01*
%TO.N,Net-(D2-A)*%
X76026471Y-94575000D02*
X76551471Y-95100000D01*
X75300000Y-94575000D02*
X76026471Y-94575000D01*
X76551471Y-95100000D02*
X78775000Y-95100000D01*
X78775000Y-95100000D02*
X79500000Y-94375000D01*
%TO.N,/USB_N*%
X75423530Y-117300000D02*
X74926471Y-117300000D01*
X79850736Y-111175736D02*
X80481471Y-110545000D01*
X72670166Y-89954834D02*
X73657400Y-89954834D01*
X73657400Y-89954834D02*
X74300000Y-90597434D01*
X74300000Y-104900000D02*
X74650000Y-105250000D01*
X74650000Y-105423531D02*
X79850736Y-110624267D01*
X74300000Y-90597434D02*
X74300000Y-104900000D01*
X72550000Y-90075000D02*
X72670166Y-89954834D01*
X74575000Y-116451471D02*
X79850736Y-111175736D01*
X74926471Y-117300000D02*
X74575000Y-116948529D01*
X74650000Y-105250000D02*
X74650000Y-105423531D01*
X80481471Y-110545000D02*
X85375000Y-110545000D01*
X75999265Y-116724265D02*
X75423530Y-117300000D01*
X79850736Y-110624267D02*
X79850736Y-111175736D01*
X74575000Y-116948529D02*
X74575000Y-116451471D01*
%TO.N,/USB_P*%
X82425000Y-112600000D02*
X82425000Y-114032573D01*
X77592427Y-114282573D02*
X75175000Y-116700000D01*
X85232189Y-114282573D02*
X82675000Y-114282573D01*
X82675000Y-114282573D02*
X77592427Y-114282573D01*
X82425000Y-114032573D02*
X82675000Y-114282573D01*
%TO.N,Net-(J1-CC2)*%
X73625000Y-113525000D02*
X71300000Y-111200000D01*
X71300000Y-111200000D02*
X71300000Y-91400000D01*
%TO.N,Net-(J1-CC1)*%
X70375000Y-93900000D02*
X70375000Y-113700000D01*
X70375000Y-113700000D02*
X73425000Y-116750000D01*
%TO.N,/I2C_SDA*%
X66675000Y-112225000D02*
X66675000Y-95107132D01*
X66675000Y-95107132D02*
X71225156Y-90556976D01*
%TO.N,/GPIO10*%
X63056827Y-75743173D02*
X63298654Y-75985000D01*
X62625000Y-76175000D02*
X63056827Y-75743173D01*
X67928350Y-75985000D02*
X68665292Y-75248058D01*
X63298654Y-75985000D02*
X67928350Y-75985000D01*
X62625000Y-91150000D02*
X62625000Y-76175000D01*
X63025000Y-91550000D02*
X62625000Y-91150000D01*
%TO.N,/GPIO21*%
X83175000Y-107925000D02*
X83525000Y-107925000D01*
X83525000Y-107925000D02*
X83605000Y-108005000D01*
X83605000Y-108005000D02*
X85375000Y-108005000D01*
%TO.N,/GPIO37*%
X86125000Y-91725000D02*
X85248654Y-91725000D01*
X80750000Y-74600000D02*
X80450000Y-74900000D01*
X83700000Y-74600000D02*
X80750000Y-74600000D01*
X85248654Y-91725000D02*
X83700000Y-90176346D01*
X83700000Y-90176346D02*
X83700000Y-74600000D01*
%TO.N,/GPIO39*%
X86525000Y-71968654D02*
X86525000Y-86425000D01*
X81180000Y-71295000D02*
X85851346Y-71295000D01*
X80725000Y-72000000D02*
X80600000Y-71875000D01*
X85851346Y-71295000D02*
X86403173Y-71846827D01*
X86403173Y-71846827D02*
X86525000Y-71968654D01*
X80600000Y-71875000D02*
X81180000Y-71295000D01*
X80725000Y-73125000D02*
X80725000Y-72000000D01*
X86525000Y-86425000D02*
X86475000Y-86475000D01*
%TO.N,/GPIO36*%
X83300000Y-92316346D02*
X83300000Y-88900000D01*
X83300000Y-88900000D02*
X83300000Y-75175000D01*
X86375000Y-93975000D02*
X84958654Y-93975000D01*
X86475000Y-94400000D02*
X86525000Y-94350000D01*
X84958654Y-93975000D02*
X83300000Y-92316346D01*
X83300000Y-75175000D02*
X81301206Y-75175000D01*
X81301206Y-75175000D02*
X80959094Y-75517112D01*
%TO.N,/GPIO38*%
X83325000Y-73825000D02*
X83025000Y-73825000D01*
X84125000Y-73025000D02*
X83325000Y-73825000D01*
X81525000Y-73725000D02*
X80476471Y-73725000D01*
X85663654Y-89600000D02*
X84125000Y-88061346D01*
X80476471Y-73725000D02*
X79925691Y-73174220D01*
X82225000Y-73025000D02*
X81525000Y-73725000D01*
X86475000Y-89600000D02*
X85663654Y-89600000D01*
X83025000Y-73825000D02*
X82225000Y-73025000D01*
X84125000Y-88061346D02*
X84125000Y-73025000D01*
X79925691Y-73174220D02*
X79925691Y-73091696D01*
%TO.N,/GPIO26*%
X83235000Y-103325000D02*
X85375000Y-105465000D01*
X83075000Y-103325000D02*
X83235000Y-103325000D01*
%TO.N,Net-(U2-FB)*%
X73575000Y-94725000D02*
X73375000Y-94525000D01*
X73375000Y-94525000D02*
X73325000Y-94475000D01*
X73883877Y-91029840D02*
X73883877Y-93166123D01*
X73883877Y-93166123D02*
X73325000Y-93725000D01*
X73408871Y-90554834D02*
X73883877Y-91029840D01*
X73575000Y-111550000D02*
X73575000Y-94725000D01*
X73325000Y-94475000D02*
X73325000Y-93725000D01*
%TD*%
M02*
