M48
; DRILL file {KiCad 8.0.3} date 2024-10-04T21:01:34+0530
; FORMAT={-:-/ absolute / inch / decimal}
; #@! TF.CreationDate,2024-10-04T21:01:34+05:30
; #@! TF.GenerationSoftware,Kicad,Pcbnew,8.0.3
; #@! TF.FileFunction,Plated,1,2,PTH
FMAT,2
INCH
; #@! TA.AperFunction,Plated,PTH,ViaDrill
T1C0.0118
; #@! TA.AperFunction,Plated,PTH,ComponentDrill
T2C0.0236
; #@! TA.AperFunction,Plated,PTH,ComponentDrill
T3C0.0394
%
G90
G05
T1
X2.4813Y-3.6043
X2.5541Y-4.5876
X2.6201Y-2.5768
X2.625Y-4.4183
X2.6791Y-3.6102
X2.7034Y-2.9625
X2.7195Y-3.7297
X2.7234Y-2.6555
X2.7411Y-3.0236
X2.7707Y-3.6969
X2.8041Y-3.5652
X2.8071Y-3.5984
X2.8307Y-4.1831
X2.8356Y-3.7539
X2.8563Y-3.5463
X2.8661Y-4.6988
X2.8852Y-3.5984
X2.8868Y-3.69
X2.8901Y-3.5652
X2.8907Y-4.5965
X2.8967Y-4.3917
X2.8986Y-4.4695
X2.9006Y-3.4321
X2.9596Y-4.5945
X2.9646Y-3.7234
X2.9793Y-3.1319
X2.9911Y-3.2982
X2.9921Y-4.5954
X3.0089Y-4.187
X3.0236Y-3.7205
X3.0266Y-3.1269
X3.1112Y-3.2736
X3.1126Y-3.0014
X3.1299Y-3.7156
X3.1348Y-3.0236
X3.1467Y-2.8776
X3.1673Y-2.9488
X3.1781Y-2.8789
X3.1795Y-3.6457
X3.1874Y-2.9731
X3.2451Y-4.4331
X3.2746Y-4.249
X3.3556Y-4.4993
X3.3907Y-2.6053
X3.3907Y-3.6112
X3.4006Y-3.6998
X3.4045Y-3.4045
X3.4045Y-3.5276
T3
X2.5108Y-2.5463
X2.5108Y-2.6463
X2.5108Y-2.7463
X2.5108Y-2.8463
X2.5108Y-2.9463
X2.5108Y-3.0463
X2.5108Y-3.1463
X2.5108Y-3.2463
X2.5108Y-3.3463
X2.5108Y-3.4463
X2.5108Y-3.5463
X2.5108Y-3.6463
X2.5108Y-3.7463
X2.5108Y-3.8463
X2.5108Y-3.9463
X2.5108Y-4.0463
X2.5108Y-4.1463
X2.5108Y-4.2463
X2.5108Y-4.3463
X2.5108Y-4.4463
X2.5108Y-4.5463
X2.5108Y-4.6463
X3.3612Y-2.5522
X3.3612Y-2.6522
X3.3612Y-2.7522
X3.3612Y-2.8522
X3.3612Y-2.9522
X3.3612Y-3.0522
X3.3612Y-3.1522
X3.3612Y-3.2522
X3.3612Y-3.3522
X3.3612Y-3.4522
X3.3612Y-3.5522
X3.3612Y-3.6522
X3.3612Y-3.7522
X3.3612Y-3.8522
X3.3612Y-3.9522
X3.3612Y-4.0522
X3.3612Y-4.1522
X3.3612Y-4.2522
X3.3612Y-4.3522
X3.3612Y-4.4522
X3.3612Y-4.5522
X3.3612Y-4.6522
T2
G00X2.7758Y-4.6441
M15
G01X2.7758Y-4.6874
M16
G05
G00X2.7758Y-4.8146
M15
G01X2.7758Y-4.8461
M16
G05
G00X3.1159Y-4.6441
M15
G01X3.1159Y-4.6874
M16
G05
G00X3.1159Y-4.8146
M15
G01X3.1159Y-4.8461
M16
G05
M30
